<svg width="18" height="18" viewBox="0 0 18 18" fill="none" xmlns="http://www.w3.org/2000/svg">
<path d="M8.9925 1.5C4.8525 1.5 1.5 4.86 1.5 9C1.5 13.14 4.8525 16.5 8.9925 16.5C13.14 16.5 16.5 13.14 16.5 9C16.5 4.86 13.14 1.5 8.9925 1.5ZM8.9925 15.375C5.6775 15.375 2.625 12.315 2.625 9C2.625 5.685 5.685 2.625 9 2.625C12.315 2.625 15.375 5.685 15.375 9C15.375 12.315 12.3075 15.375 8.9925 15.375ZM8.835 5.25H8.79C8.49 5.25 8.25 5.49 8.25 5.79V9.33C8.25 9.5925 8.385 9.84 8.6175 9.975L11.73 11.8425C11.985 11.9925 12.315 11.9175 12.465 11.6625C12.5027 11.6018 12.5277 11.5341 12.5387 11.4635C12.5496 11.3929 12.5462 11.3208 12.5288 11.2515C12.5113 11.1822 12.48 11.1171 12.4368 11.0602C12.3937 11.0032 12.3395 10.9556 12.2775 10.92L9.375 9.195V5.79C9.375 5.49 9.135 5.25 8.835 5.25Z" fill="white"/>
</svg>
