<svg width="25" height="17" viewBox="0 0 25 17" fill="none" xmlns="http://www.w3.org/2000/svg">
<path d="M24.9451 8.0054C24.9091 7.92277 24.0277 5.96829 22.0594 4.00005C20.2331 2.17587 17.0954 0 12.5 0C7.9046 0 4.76685 2.17587 2.94056 4.00005C0.972315 5.96829 0.0909482 7.91959 0.0549308 8.0054C0.0187147 8.08676 0 8.17482 0 8.26387C0 8.35293 0.0187147 8.44099 0.0549308 8.52235C0.0909482 8.60392 0.972315 10.5584 2.94056 12.5266C4.76685 14.3508 7.9046 16.5256 12.5 16.5256C17.0954 16.5256 20.2331 14.3508 22.0594 12.5266C24.0277 10.5584 24.9091 8.6071 24.9451 8.52235C24.9813 8.44099 25 8.35293 25 8.26387C25 8.17482 24.9813 8.08676 24.9451 8.0054ZM12.5 15.2544C9.17581 15.2544 6.27323 14.0447 3.87172 11.6601C2.865 10.6596 2.01311 9.51459 1.34414 8.26281C2.01292 7.01124 2.86484 5.86654 3.87172 4.86659C6.27323 2.48096 9.17581 1.2712 12.5 1.2712C15.8242 1.2712 18.7268 2.48096 21.1283 4.86659C22.1352 5.86654 22.9871 7.01124 23.6559 8.26281C22.9811 9.55626 19.5975 15.2544 12.5 15.2544ZM12.5 3.38987C11.5362 3.38987 10.5941 3.67567 9.79274 4.21111C8.99139 4.74656 8.36681 5.50761 7.99799 6.39802C7.62917 7.28843 7.53267 8.26822 7.72069 9.21348C7.90871 10.1587 8.37282 11.027 9.05431 11.7085C9.7358 12.39 10.6041 12.8541 11.5493 13.0421C12.4946 13.2301 13.4744 13.1336 14.3648 12.7648C15.2552 12.396 16.0163 11.7714 16.5517 10.9701C17.0871 10.1687 17.3729 9.22659 17.3729 8.26281C17.3713 6.97095 16.8573 5.73247 15.9438 4.81898C15.0303 3.90549 13.7919 3.39155 12.5 3.38987ZM12.5 11.8646C11.7876 11.8646 11.0913 11.6533 10.499 11.2576C9.90668 10.8618 9.44503 10.2993 9.17243 9.64114C8.89982 8.98301 8.82849 8.25882 8.96747 7.56015C9.10644 6.86148 9.44947 6.21971 9.95319 5.716C10.4569 5.21229 11.0987 4.86925 11.7973 4.73028C12.496 4.59131 13.2202 4.66263 13.8783 4.93524C14.5365 5.20785 15.099 5.66949 15.4947 6.26179C15.8905 6.8541 16.1017 7.55046 16.1017 8.26281C16.1017 9.21806 15.7223 10.1342 15.0468 10.8096C14.3714 11.4851 13.4552 11.8646 12.5 11.8646Z" fill="#C6C5C5"/>
</svg>
