<svg width="40" height="40" viewBox="0 0 40 40" fill="none" xmlns="http://www.w3.org/2000/svg">
<circle cx="20" cy="20" r="20" fill="white"/>
<path fill-rule="evenodd" clip-rule="evenodd" d="M18.488 11.788C19.4724 10.8034 20.8077 10.2502 22.2 10.25H24.9C25.0989 10.25 25.2897 10.329 25.4303 10.4697C25.571 10.6103 25.65 10.8011 25.65 11V14.6C25.65 14.7989 25.571 14.9897 25.4303 15.1303C25.2897 15.271 25.0989 15.35 24.9 15.35H22.2C22.1803 15.35 22.1608 15.3539 22.1426 15.3614C22.1244 15.369 22.1079 15.38 22.0939 15.3939C22.08 15.4079 22.069 15.4244 22.0614 15.4426C22.0539 15.4608 22.05 15.4803 22.05 15.5V17.45H24.9C25.014 17.4499 25.1266 17.4759 25.229 17.5258C25.3315 17.5758 25.4213 17.6485 25.4915 17.7383C25.5617 17.8282 25.6104 17.9328 25.6341 18.0444C25.6578 18.1559 25.6557 18.2714 25.628 18.382L24.728 21.982C24.6874 22.1443 24.5937 22.2884 24.4618 22.3913C24.3299 22.4942 24.1673 22.5501 24 22.55H22.05V29C22.05 29.1989 21.971 29.3897 21.8303 29.5303C21.6897 29.671 21.4989 29.75 21.3 29.75H17.7C17.5011 29.75 17.3103 29.671 17.1697 29.5303C17.029 29.3897 16.95 29.1989 16.95 29V22.55H15C14.8011 22.55 14.6103 22.471 14.4697 22.3303C14.329 22.1897 14.25 21.9989 14.25 21.8V18.2C14.25 18.1015 14.2694 18.004 14.3071 17.913C14.3448 17.822 14.4 17.7393 14.4697 17.6697C14.5393 17.6 14.622 17.5448 14.713 17.5071C14.804 17.4694 14.9015 17.45 15 17.45H16.95V15.5C16.9502 14.1077 17.5034 12.7724 18.488 11.788ZM22.2 11.75C21.2054 11.75 20.2516 12.1451 19.5483 12.8483C18.8451 13.5516 18.45 14.5054 18.45 15.5V18.2C18.45 18.3989 18.371 18.5897 18.2303 18.7303C18.0897 18.871 17.8989 18.95 17.7 18.95H15.75V21.05H17.7C17.8989 21.05 18.0897 21.129 18.2303 21.2697C18.371 21.4103 18.45 21.6011 18.45 21.8V28.25H20.55V21.8C20.55 21.6011 20.629 21.4103 20.7697 21.2697C20.9103 21.129 21.1011 21.05 21.3 21.05H23.414L23.939 18.95H21.3C21.1011 18.95 20.9103 18.871 20.7697 18.7303C20.629 18.5897 20.55 18.3989 20.55 18.2V15.5C20.55 15.0624 20.7238 14.6427 21.0333 14.3333C21.3427 14.0238 21.7624 13.85 22.2 13.85H24.15V11.75H22.2Z" fill="black"/>
</svg>
