<svg width="24" height="24" viewBox="0 0 24 24" fill="none" xmlns="http://www.w3.org/2000/svg">
<path d="M12 12.234H2.75C2.75 16.842 8.5485 20.804 8.5485 20.804H12" stroke="black" stroke-linecap="round" stroke-linejoin="round"/>
<path d="M5.44189 13.287C5.44189 16.683 9.25589 19.189 9.25589 19.189M11.9999 12.234H21.2499C21.2499 16.842 15.4514 20.804 15.4514 20.804H11.9999M7.04689 12.234C6.37389 9.71452 10.8739 7.98252 14.9119 7.44752L15.3069 6.72052L16.8989 8.65552L16.0254 8.79752C15.5979 10.2025 13.4579 12.234 13.4579 12.234" stroke="black" stroke-linecap="round" stroke-linejoin="round"/>
<path d="M7.75488 12.234C7.89888 10.937 9.40288 9.47699 15.1409 7.72449" stroke="black" stroke-linecap="round" stroke-linejoin="round"/>
<path d="M15.2889 7.905C13.1189 8.992 10.5889 10.241 8.81592 12.234M15.7124 8.4185C13.4574 11.4815 11.9999 12.234 11.9999 12.234M10.7524 12.234C12.1124 11.439 15.4974 8.157 15.4974 8.157M16.5384 8.2265L20.6139 4.9235C20.6809 4.86933 20.7364 4.80251 20.7775 4.72684C20.8186 4.65117 20.8444 4.56814 20.8533 4.48251C20.8623 4.39687 20.8543 4.31031 20.8298 4.22777C20.8052 4.14524 20.7647 4.06835 20.7104 4.0015C20.6562 3.93462 20.5894 3.87907 20.5137 3.83803C20.438 3.79699 20.355 3.77125 20.2694 3.76229C20.1838 3.75333 20.0972 3.76132 20.0147 3.7858C19.9322 3.81029 19.8553 3.85079 19.7884 3.905L15.7124 7.2075" stroke="black" stroke-linecap="round" stroke-linejoin="round"/>
<path d="M14.9126 7.44751L16.0256 8.79751" stroke="black" stroke-linecap="round" stroke-linejoin="round"/>
</svg>
