<svg width="1440" height="672" viewBox="0 0 1440 672" fill="none" xmlns="http://www.w3.org/2000/svg">
<rect width="1440" height="672" fill="white"/>
<path fill-rule="evenodd" clip-rule="evenodd" d="M712.432 195.673C675.541 236.696 643.85 298.608 641.477 363.744C639.105 428.88 675.157 475.692 735.053 514.016C847.44 585.926 990.149 551.811 1029.76 497.235C1066.75 446.259 1071.19 406.384 1043.96 347.943C1016.73 289.503 998.082 248.135 1003.97 195.923C1009.77 144.485 1004.96 112.079 972.751 97.283C937.91 81.2804 896.114 79.0785 849.752 97.2827C802.453 115.855 746.751 157.509 712.432 195.673Z" fill="#FF9800"/>
<path d="M724.024 189.747L727.625 187.854L726.937 191.864L729.852 194.704L725.825 195.289L724.024 198.938L722.223 195.289L718.197 194.704L721.111 191.864L720.423 187.854L724.024 189.747Z" fill="#FACC15"/>
<g clip-path="url(#clip0_526_2039)">
<path d="M729.523 425.044L732.352 423.556L731.812 426.707L734.102 428.938L730.938 429.398L729.523 432.265L728.108 429.398L724.945 428.938L727.234 426.707L726.693 423.556L729.523 425.044Z" fill="#FACC15"/>
</g>
<g clip-path="url(#clip1_526_2039)">
<path d="M700.488 247.033C702.099 247.033 703.404 248.339 703.404 249.95C703.404 251.56 702.099 252.866 700.488 252.866C698.877 252.866 697.571 251.56 697.571 249.95C697.571 248.339 698.877 247.033 700.488 247.033Z" fill="#FACC15"/>
</g>
<g clip-path="url(#clip2_526_2039)">
<path d="M701.973 134.113C703.814 134.113 705.307 135.605 705.307 137.446C705.307 139.287 703.814 140.779 701.973 140.779C700.132 140.779 698.64 139.287 698.64 137.446C698.64 135.605 700.132 134.113 701.973 134.113Z" fill="#FACC15"/>
</g>
<g clip-path="url(#clip3_526_2039)">
<path d="M637.023 114.274C639.324 114.274 641.189 116.14 641.189 118.441C641.189 120.742 639.324 122.607 637.023 122.607C634.722 122.607 632.856 120.742 632.856 118.441C632.856 116.14 634.722 114.274 637.023 114.274Z" fill="#FACC15"/>
</g>
<g clip-path="url(#clip4_526_2039)">
<path d="M669.976 208.274C672.277 208.274 674.143 210.14 674.143 212.441C674.143 214.742 672.277 216.607 669.976 216.607C667.675 216.607 665.809 214.742 665.809 212.441C665.809 210.14 667.675 208.274 669.976 208.274Z" fill="#FACC15"/>
</g>
<g clip-path="url(#clip5_526_2039)">
<path d="M719.524 555.355C722.055 555.355 724.107 557.407 724.107 559.938C724.107 562.47 722.055 564.521 719.524 564.521C716.993 564.521 714.941 562.47 714.941 559.938C714.941 557.407 716.993 555.355 719.524 555.355Z" fill="#FACC15"/>
</g>
<g clip-path="url(#clip6_526_2039)">
<path d="M719.023 329.791C719.943 329.791 720.689 330.537 720.689 331.457C720.689 332.378 719.943 333.124 719.023 333.124C718.102 333.124 717.356 332.378 717.356 331.457C717.356 330.537 718.102 329.791 719.023 329.791Z" fill="#FACC15"/>
</g>
<path d="M599.499 293.033C601.11 293.033 602.416 294.339 602.416 295.95C602.416 297.56 601.11 298.866 599.499 298.866C597.888 298.866 596.583 297.56 596.583 295.95C596.583 294.339 597.888 293.033 599.499 293.033Z" fill="#FACC15"/>
<g clip-path="url(#clip7_526_2039)">
<path d="M604.977 525.951C606.357 525.951 607.477 527.07 607.477 528.451C607.477 529.832 606.357 530.951 604.977 530.951C603.596 530.951 602.477 529.832 602.477 528.451C602.477 527.07 603.596 525.951 604.977 525.951Z" fill="#FACC15"/>
</g>
<path d="M684.648 460.343V463.468C684.648 463.634 684.714 463.793 684.831 463.91C684.949 464.027 685.108 464.093 685.273 464.093C685.439 464.093 685.598 464.027 685.715 463.91C685.833 463.793 685.898 463.634 685.898 463.468V460.343H689.023C689.189 460.343 689.348 460.277 689.465 460.16C689.583 460.043 689.648 459.884 689.648 459.718C689.648 459.552 689.583 459.393 689.465 459.276C689.348 459.159 689.189 459.093 689.023 459.093H685.898V455.968C685.898 455.802 685.833 455.643 685.715 455.526C685.598 455.409 685.439 455.343 685.273 455.343C685.108 455.343 684.949 455.409 684.831 455.526C684.714 455.643 684.648 455.802 684.648 455.968V459.093H681.523C681.358 459.093 681.199 459.159 681.081 459.276C680.964 459.393 680.898 459.552 680.898 459.718C680.898 459.884 680.964 460.043 681.081 460.16C681.199 460.277 681.358 460.343 681.523 460.343H684.648Z" fill="#FACC15"/>
<path d="M701.556 388.668V390.335C701.556 390.423 701.591 390.508 701.654 390.57C701.716 390.633 701.801 390.668 701.889 390.668C701.978 390.668 702.063 390.633 702.125 390.57C702.188 390.508 702.223 390.423 702.223 390.335V388.668H703.889C703.978 388.668 704.063 388.633 704.125 388.57C704.188 388.508 704.223 388.423 704.223 388.335C704.223 388.246 704.188 388.161 704.125 388.099C704.063 388.036 703.978 388.001 703.889 388.001H702.223V386.335C702.223 386.246 702.188 386.161 702.125 386.099C702.063 386.036 701.978 386.001 701.889 386.001C701.801 386.001 701.716 386.036 701.654 386.099C701.591 386.161 701.556 386.246 701.556 386.335V388.001H699.889C699.801 388.001 699.716 388.036 699.654 388.099C699.591 388.161 699.556 388.246 699.556 388.335C699.556 388.423 699.591 388.508 699.654 388.57C699.716 388.633 699.801 388.668 699.889 388.668H701.556Z" fill="#FACC15"/>
<g clip-path="url(#clip8_526_2039)">
<path d="M645.023 352.951C646.404 352.951 647.523 354.07 647.523 355.451C647.523 356.832 646.404 357.951 645.023 357.951C643.643 357.951 642.523 356.832 642.523 355.451C642.523 354.07 643.643 352.951 645.023 352.951Z" fill="#FACC15"/>
</g>
<path d="M685.324 81.7676V84.2676C685.324 84.4002 685.377 84.5274 685.471 84.6211C685.564 84.7149 685.692 84.7676 685.824 84.7676C685.957 84.7676 686.084 84.7149 686.178 84.6211C686.272 84.5274 686.324 84.4002 686.324 84.2676V81.7676H688.824C688.957 81.7676 689.084 81.7149 689.178 81.6211C689.272 81.5274 689.324 81.4002 689.324 81.2676C689.324 81.135 689.272 81.0078 689.178 80.914C689.084 80.8203 688.957 80.7676 688.824 80.7676H686.324V78.2676C686.324 78.135 686.272 78.0078 686.178 77.914C686.084 77.8203 685.957 77.7676 685.824 77.7676C685.692 77.7676 685.564 77.8203 685.471 77.914C685.377 78.0078 685.324 78.135 685.324 78.2676V80.7676H682.824C682.692 80.7676 682.564 80.8203 682.471 80.914C682.377 81.0078 682.324 81.135 682.324 81.2676C682.324 81.4002 682.377 81.5274 682.471 81.6211C682.564 81.7149 682.692 81.7676 682.824 81.7676H685.324Z" fill="#FACC15"/>
<path d="M599.249 204.988L598.513 205.725C598.493 205.744 598.477 205.767 598.466 205.792C598.455 205.818 598.449 205.845 598.449 205.873C598.449 205.901 598.454 205.928 598.465 205.954C598.475 205.979 598.491 206.002 598.51 206.022C598.53 206.042 598.553 206.057 598.579 206.067C598.604 206.078 598.632 206.083 598.659 206.083C598.687 206.083 598.714 206.077 598.74 206.066C598.765 206.055 598.788 206.039 598.807 206.019L599.544 205.283L600.28 206.019C600.3 206.039 600.323 206.055 600.348 206.066C600.374 206.077 600.401 206.083 600.429 206.083C600.456 206.083 600.484 206.078 600.509 206.067C600.535 206.057 600.558 206.042 600.578 206.022C600.597 206.002 600.613 205.979 600.623 205.954C600.634 205.928 600.639 205.901 600.639 205.873C600.638 205.845 600.633 205.818 600.622 205.792C600.611 205.767 600.595 205.744 600.575 205.725L599.839 204.988L600.575 204.252C600.595 204.232 600.611 204.209 600.622 204.184C600.633 204.159 600.638 204.131 600.639 204.104C600.639 204.076 600.634 204.049 600.623 204.023C600.613 203.997 600.597 203.974 600.578 203.955C600.558 203.935 600.535 203.92 600.509 203.909C600.484 203.899 600.456 203.893 600.429 203.894C600.401 203.894 600.374 203.9 600.348 203.91C600.323 203.921 600.3 203.937 600.28 203.957L599.544 204.694L598.807 203.957C598.788 203.937 598.765 203.921 598.74 203.91C598.714 203.9 598.687 203.894 598.659 203.894C598.632 203.893 598.604 203.899 598.579 203.909C598.553 203.92 598.53 203.935 598.51 203.955C598.491 203.974 598.475 203.997 598.465 204.023C598.454 204.049 598.449 204.076 598.449 204.104C598.449 204.131 598.455 204.159 598.466 204.184C598.477 204.209 598.493 204.232 598.513 204.252L599.249 204.988V204.988Z" fill="#FACC15"/>
<path d="M697.703 615.03L695.493 617.24C695.434 617.298 695.386 617.367 695.353 617.443C695.321 617.519 695.303 617.601 695.303 617.684C695.302 617.767 695.318 617.849 695.349 617.926C695.381 618.003 695.427 618.073 695.486 618.131C695.544 618.19 695.614 618.236 695.691 618.268C695.768 618.299 695.85 618.315 695.933 618.314C696.016 618.314 696.098 618.296 696.174 618.264C696.251 618.231 696.32 618.183 696.377 618.124L698.587 615.914L700.797 618.124C700.854 618.183 700.923 618.231 700.999 618.264C701.076 618.296 701.158 618.314 701.241 618.314C701.324 618.315 701.406 618.299 701.483 618.268C701.56 618.236 701.629 618.19 701.688 618.131C701.747 618.073 701.793 618.003 701.825 617.926C701.856 617.849 701.872 617.767 701.871 617.684C701.87 617.601 701.853 617.519 701.82 617.443C701.788 617.367 701.74 617.298 701.68 617.24L699.471 615.031L701.68 612.821C701.74 612.763 701.788 612.694 701.82 612.618C701.853 612.541 701.87 612.459 701.871 612.376C701.872 612.293 701.856 612.211 701.825 612.134C701.793 612.057 701.747 611.988 701.688 611.929C701.629 611.87 701.56 611.824 701.483 611.793C701.406 611.761 701.324 611.745 701.241 611.746C701.158 611.747 701.076 611.764 700.999 611.797C700.923 611.829 700.854 611.877 700.797 611.937L698.587 614.146L696.377 611.937C696.32 611.877 696.251 611.829 696.174 611.797C696.098 611.764 696.016 611.747 695.933 611.746C695.85 611.745 695.768 611.761 695.691 611.793C695.614 611.824 695.544 611.87 695.486 611.929C695.427 611.988 695.381 612.057 695.349 612.134C695.318 612.211 695.302 612.293 695.303 612.376C695.303 612.459 695.321 612.541 695.353 612.618C695.386 612.694 695.434 612.763 695.493 612.821L697.703 615.031V615.03Z" fill="#FACC15"/>
<path d="M605.289 46.7686V49.2686C605.289 49.4012 605.342 49.5283 605.436 49.6221C605.529 49.7159 605.656 49.7686 605.789 49.7686C605.922 49.7686 606.049 49.7159 606.143 49.6221C606.236 49.5283 606.289 49.4012 606.289 49.2686V46.7686H608.789C608.922 46.7686 609.049 46.7159 609.143 46.6221C609.236 46.5283 609.289 46.4012 609.289 46.2686C609.289 46.1359 609.236 46.0088 609.143 45.915C609.049 45.8212 608.922 45.7686 608.789 45.7686H606.289V43.2686C606.289 43.1359 606.236 43.0088 606.143 42.915C606.049 42.8212 605.922 42.7686 605.789 42.7686C605.656 42.7686 605.529 42.8212 605.436 42.915C605.342 43.0088 605.289 43.1359 605.289 43.2686V45.7686H602.789C602.656 45.7686 602.529 45.8212 602.436 45.915C602.342 46.0088 602.289 46.1359 602.289 46.2686C602.289 46.4012 602.342 46.5283 602.436 46.6221C602.529 46.7159 602.656 46.7686 602.789 46.7686H605.289Z" fill="#FACC15"/>
<path d="M672.44 560.718V562.801C672.44 562.912 672.484 563.018 672.562 563.096C672.64 563.174 672.746 563.218 672.857 563.218C672.967 563.218 673.073 563.174 673.151 563.096C673.23 563.018 673.273 562.912 673.273 562.801V560.718H675.357C675.467 560.718 675.573 560.674 675.651 560.596C675.73 560.518 675.773 560.412 675.773 560.301C675.773 560.191 675.73 560.085 675.651 560.006C675.573 559.928 675.467 559.884 675.357 559.884H673.273V557.801C673.273 557.691 673.23 557.585 673.151 557.506C673.073 557.428 672.967 557.384 672.857 557.384C672.746 557.384 672.64 557.428 672.562 557.506C672.484 557.585 672.44 557.691 672.44 557.801V559.884H670.357C670.246 559.884 670.14 559.928 670.062 560.006C669.984 560.085 669.94 560.191 669.94 560.301C669.94 560.412 669.984 560.518 670.062 560.596C670.14 560.674 670.246 560.718 670.357 560.718H672.44Z" fill="#FACC15"/>
<path d="M622.585 231.501L621.407 232.68C621.375 232.711 621.35 232.747 621.332 232.788C621.315 232.829 621.306 232.872 621.305 232.917C621.305 232.961 621.313 233.005 621.33 233.046C621.347 233.087 621.372 233.124 621.403 233.155C621.434 233.187 621.472 233.211 621.513 233.228C621.553 233.245 621.597 233.253 621.642 233.253C621.686 233.253 621.73 233.243 621.77 233.226C621.811 233.208 621.848 233.183 621.878 233.151L623.057 231.973L624.235 233.151C624.266 233.183 624.303 233.208 624.344 233.226C624.384 233.243 624.428 233.253 624.472 233.253C624.517 233.253 624.561 233.245 624.601 233.228C624.642 233.211 624.68 233.187 624.711 233.155C624.742 233.124 624.767 233.087 624.784 233.046C624.801 233.005 624.809 232.961 624.809 232.917C624.808 232.872 624.799 232.829 624.782 232.788C624.764 232.747 624.739 232.711 624.707 232.68L623.528 231.502L624.707 230.323C624.739 230.292 624.764 230.255 624.782 230.215C624.799 230.174 624.808 230.13 624.809 230.086C624.809 230.042 624.801 229.998 624.784 229.957C624.767 229.916 624.742 229.879 624.711 229.847C624.68 229.816 624.642 229.791 624.601 229.775C624.561 229.758 624.517 229.749 624.472 229.75C624.428 229.75 624.384 229.759 624.344 229.777C624.303 229.794 624.266 229.82 624.235 229.852L623.057 231.03L621.878 229.852C621.848 229.82 621.811 229.794 621.77 229.777C621.73 229.759 621.686 229.75 621.642 229.75C621.597 229.749 621.553 229.758 621.513 229.775C621.472 229.791 621.434 229.816 621.403 229.847C621.372 229.879 621.347 229.916 621.33 229.957C621.313 229.998 621.305 230.042 621.305 230.086C621.306 230.13 621.315 230.174 621.332 230.215C621.35 230.255 621.375 230.292 621.407 230.323L622.585 231.502V231.501Z" fill="#FACC15"/>
<defs>
<clipPath id="clip0_526_2039">
<rect width="11" height="11" fill="white" transform="matrix(-1 0 0 -1 735.023 433.468)"/>
</clipPath>
<clipPath id="clip1_526_2039">
<rect width="7" height="7" fill="white" transform="matrix(-1 0 0 -1 703.988 253.469)"/>
</clipPath>
<clipPath id="clip2_526_2039">
<rect width="8" height="8" fill="white" transform="matrix(-1 0 0 -1 705.973 141.468)"/>
</clipPath>
<clipPath id="clip3_526_2039">
<rect width="10" height="10" fill="white" transform="matrix(-1 0 0 -1 642.023 123.468)"/>
</clipPath>
<clipPath id="clip4_526_2039">
<rect width="10" height="10" fill="white" transform="matrix(-1 0 0 -1 674.977 217.468)"/>
</clipPath>
<clipPath id="clip5_526_2039">
<rect width="11" height="11" fill="white" transform="matrix(-1 0 0 -1 725.023 565.468)"/>
</clipPath>
<clipPath id="clip6_526_2039">
<rect width="4" height="4" fill="white" transform="matrix(-1 0 0 -1 721.023 333.468)"/>
</clipPath>
<clipPath id="clip7_526_2039">
<rect width="6" height="6" fill="white" transform="matrix(-1 0 0 -1 607.977 531.468)"/>
</clipPath>
<clipPath id="clip8_526_2039">
<rect width="6" height="6" fill="white" transform="matrix(-1 0 0 -1 648.023 358.468)"/>
</clipPath>
</defs>
</svg>
