<svg width="24" height="24" viewBox="0 0 24 24" fill="none" xmlns="http://www.w3.org/2000/svg">
<g clip-path="url(#clip0_6_143)">
<path fill-rule="evenodd" clip-rule="evenodd" d="M18 2C18.5046 1.99984 18.9906 2.19041 19.3605 2.5335C19.7305 2.87659 19.9571 3.34684 19.995 3.85L20 4V20C20.0002 20.5046 19.8096 20.9906 19.4665 21.3605C19.1234 21.7305 18.6531 21.9572 18.15 21.995L18 22H5.99999C5.49541 22.0002 5.00942 21.8096 4.63944 21.4665C4.26946 21.1234 4.04283 20.6532 4.00499 20.15L3.99999 20V19C3.74511 18.9997 3.49996 18.9021 3.31462 18.7272C3.12929 18.5522 3.01776 18.313 3.00282 18.0586C2.98788 17.8042 3.07067 17.5536 3.23426 17.3582C3.39785 17.1627 3.62989 17.0371 3.88299 17.007L3.99999 17V15C3.74511 14.9997 3.49996 14.9021 3.31462 14.7272C3.12929 14.5522 3.01776 14.313 3.00282 14.0586C2.98788 13.8042 3.07067 13.5536 3.23426 13.3582C3.39785 13.1627 3.62989 13.0371 3.88299 13.007L3.99999 13V11C3.74511 10.9997 3.49996 10.9021 3.31462 10.7272C3.12929 10.5522 3.01776 10.313 3.00282 10.0586C2.98788 9.80416 3.07067 9.55362 3.23426 9.35817C3.39785 9.16271 3.62989 9.0371 3.88299 9.007L3.99999 9V7C3.74511 6.99972 3.49996 6.90212 3.31462 6.72715C3.12929 6.55218 3.01776 6.31305 3.00282 6.05861C2.98788 5.80416 3.07067 5.55362 3.23426 5.35817C3.39785 5.16271 3.62989 5.0371 3.88299 5.007L3.99999 5V4C3.99983 3.49542 4.1904 3.00943 4.53349 2.63945C4.87658 2.26947 5.34684 2.04284 5.84999 2.005L5.99999 2H18ZM18 4H5.99999V20H18V4ZM15.5 6C15.8729 6.00002 16.2324 6.13892 16.5084 6.38962C16.7844 6.64032 16.9572 6.98484 16.993 7.356L17 7.5V9.5C17 9.87288 16.8611 10.2324 16.6104 10.5084C16.3597 10.7844 16.0152 10.9572 15.644 10.993L15.5 11H8.49999C8.12711 11 7.7676 10.8611 7.49157 10.6104C7.21554 10.3597 7.04279 10.0152 7.00699 9.644L6.99999 9.5V7.5C7.00001 7.12712 7.13891 6.76761 7.38961 6.49158C7.64031 6.21555 7.98483 6.0428 8.35599 6.007L8.49999 6H15.5ZM15 8H8.99999V9H15V8Z" fill="black"/>
</g>
<defs>
<clipPath id="clip0_6_143">
<rect width="24" height="24" fill="white"/>
</clipPath>
</defs>
</svg>
