<svg width="24" height="24" viewBox="0 0 24 24" fill="none" xmlns="http://www.w3.org/2000/svg">
<path d="M20.65 9.375L19.25 7.975L20 7.2L16.8 4L16.025 4.75L14.6 3.325L16.75 1.125L22.85 7.225L20.65 9.375ZM1.20005 16.75L3.35005 14.6L4.77505 16.025L4.00005 16.775L7.22505 20L7.97505 19.225L9.40005 20.65L7.25005 22.8L1.20005 16.75ZM18.5751 13L20 11.575L12.425 4L11 5.425L18.5751 13ZM11.575 20L13 18.55L5.45005 11L4.00005 12.425L11.575 20ZM11.425 14.15L14.175 11.425L12.575 9.825L9.85005 12.575L11.425 14.15ZM15.85 18.55L11.575 22.825L1.17505 12.425L5.45005 8.15L8.42505 11.15L11.175 8.4L8.17505 5.425L12.425 1.175L22.8251 11.575L18.5751 15.825L15.6 12.825L12.85 15.575L15.85 18.55Z" fill="#BDBDBD"/>
</svg>
