<svg width="32" height="32" viewBox="0 0 32 32" fill="none" xmlns="http://www.w3.org/2000/svg">
<path d="M1.05996 22.5305C1.09646 22.131 1.13146 21.7545 1.10596 21.47C0.880465 18.9565 1.61296 16.6905 3.22396 14.9185C5.05146 12.908 7.93246 11.7075 10.93 11.7075C15.104 11.7075 18.6025 13.8945 20.289 17.558C20.293 17.5675 20.298 17.577 20.3015 17.5865C20.689 16.16 21.08 15.17 21.393 14.3765C21.922 13.0345 22.206 12.315 21.9785 10.737C21.5656 10.6921 21.1784 10.5145 20.875 10.231C20.8225 10.2345 20.768 10.237 20.713 10.237C20.1455 10.237 19.6535 10.022 19.298 9.639L19.254 9.6395C18.5475 9.6395 17.946 9.334 17.5455 8.795C16.5685 8.713 15.8935 8.124 15.76 7.2165C15.58 5.9985 16.006 2.5895 16.9265 1.5165C17.2915 1.09 17.6945 1 17.9675 1C19.525 1 21.961 1.3595 24.029 1.894C27.798 2.868 28.387 3.8515 28.4805 4.6C28.863 7.6885 29.43 10.4435 29.931 12.8745C30.641 16.3185 31.2015 19.039 30.9305 21.178C30.825 22.0125 30.6145 22.7285 30.4115 23.42C30.1575 24.283 29.896 25.1755 29.8075 26.396C29.686 28.0925 27.854 29.0655 24.781 29.0655C23.5765 29.0655 22.348 28.9085 21.34 28.629C20.104 29.221 16.0255 31 11.6695 31C10.1715 31 8.77596 30.786 7.51996 30.364C1.09346 28.201 0.804964 25.308 1.05996 22.5305ZM29.938 21.0515C30.371 17.635 28.4045 12.1275 27.4875 4.7245C27.332 3.472 21.631 2.161 18.495 2.0195C18.6225 2.122 18.714 2.2565 18.726 2.3995C18.35 2.229 17.7885 2.174 17.513 2.736C17.4985 2.642 17.4925 2.5585 17.4925 2.4805C17.3485 2.7625 17.217 3.147 17.106 3.585C16.9665 4.215 16.8885 4.861 16.887 5.5095C16.886 5.96 16.788 7.566 17.5295 7.357C17.9865 7.228 17.998 6.8065 18.1285 6.3725C18.3295 5.694 18.6835 4.912 18.6405 4.191C18.815 4.8985 18.6075 5.7475 18.5305 6.463C18.4865 6.8795 18.1985 8.005 18.7085 8.1585C18.9905 8.245 19.3175 8.0465 19.551 7.901C19.64 7.845 19.7065 7.4355 19.739 7.3205C19.94 6.6175 20.3 5.809 20.254 5.0705C20.43 5.7365 20.2585 6.539 20.2025 7.2215C20.168 7.6445 19.9545 8.5615 20.4315 8.7745C20.9715 9.057 21.0545 8.372 21.1545 8.013C21.34 7.3465 21.6415 6.6175 21.6335 5.9185C21.822 6.77 21.6005 7.767 21.564 8.639C21.5445 9.072 22.452 9.463 22.7905 9.191C23.321 8.7645 23.4105 7.766 23.4705 7.1205C23.3115 7.3375 23.0835 7.618 22.794 7.5895C23.04 7.309 23.1445 6.828 23.309 6.487C23.46 6.207 23.7665 5.5405 24.127 5.5295C24.0715 5.649 23.7675 6.4725 23.8145 6.5595C23.961 6.832 24.1035 7.109 24.2665 7.37C24.405 7.5895 24.807 8.289 25.1315 8.0775C25.482 7.8505 25.702 6.834 25.702 6.834C25.702 6.834 25.689 8.1015 25.236 8.395C24.807 8.674 24.318 8.234 24.034 7.92C23.9775 8.5225 23.8145 9.229 23.45 9.695C24.521 14.4445 22.5495 14.397 21.2205 20.746C21.2205 20.746 20.3445 19.4545 19.5785 17.791C17.907 14.16 14.4205 12.542 11.0595 12.542C7.72646 12.542 4.15746 14.246 2.86046 17.192C2.43196 18.165 2.32546 19.328 2.44146 20.609C2.63096 22.6955 0.571964 26.09 8.25246 28.6405C14.347 30.664 21.843 26.784 21.843 26.784C23.899 27.456 28.707 27.7495 28.8085 26.3255C28.976 23.993 29.7165 22.8055 29.938 21.0515Z" fill="#FF9800"/>
<path d="M14.8775 26.7851C13.539 27.2761 12.0845 27.4096 10.6815 27.2426C9.27747 27.0726 7.90347 26.6141 6.70647 25.8411C6.11247 25.4521 5.55997 24.9841 5.11547 24.4226C4.68097 23.8591 4.32897 23.2081 4.24747 22.5176C5.11147 23.5746 6.21047 24.1566 7.34297 24.6191C8.48147 25.0691 9.67897 25.3496 10.886 25.4941C12.094 25.6336 13.3135 25.6351 14.5215 25.4476C15.7818 25.2514 16.9967 24.8307 18.1085 24.2056C17.4265 25.4066 16.2065 26.2951 14.8775 26.7851ZM19.217 3.42507C19.005 2.05057 20.383 2.50307 20.431 3.08907C20.055 2.91807 19.4925 2.86357 19.217 3.42507ZM20.5795 4.18507C20.367 2.81007 21.7445 3.26157 21.7925 3.84957C21.4165 3.67707 20.8545 3.62307 20.5795 4.18507ZM22.153 4.97857C21.9405 3.60407 23.318 4.05607 23.366 4.64307C22.9895 4.47057 22.4285 4.41707 22.153 4.97857Z" fill="#FF9800"/>
</svg>
