<svg width="25" height="20" viewBox="0 0 25 20" fill="none" xmlns="http://www.w3.org/2000/svg">
<path d="M4.78333 0.280104C4.71014 0.197671 4.62132 0.130573 4.52199 0.0826979C4.42267 0.0348225 4.31482 0.00712215 4.20471 0.00120248C4.09459 -0.00471719 3.98439 0.0112614 3.8805 0.0482123C3.77661 0.0851632 3.68109 0.142351 3.59948 0.216462C3.51787 0.290573 3.45179 0.380133 3.40508 0.47995C3.35836 0.579768 3.33194 0.687858 3.32733 0.797956C3.32273 0.908055 3.34004 1.01797 3.37826 1.12133C3.41648 1.2247 3.47485 1.31945 3.54999 1.40011L5.55416 3.60369C1.77082 5.92385 0.14374 9.50037 0.0718651 9.66275C0.0244829 9.76925 0 9.88449 0 10.001C0 10.1176 0.0244829 10.2328 0.0718651 10.3393C0.108323 10.4216 0.990616 12.3764 2.95208 14.3364C5.56562 16.9469 8.86666 18.3272 12.5 18.3272C14.3673 18.3378 16.2158 17.9536 17.924 17.1999L20.2156 19.7199C20.2888 19.8023 20.3776 19.8694 20.477 19.9173C20.5763 19.9652 20.6841 19.9929 20.7943 19.9988C20.9044 20.0047 21.0146 19.9887 21.1185 19.9518C21.2223 19.9148 21.3179 19.8576 21.3995 19.7835C21.4811 19.7094 21.5472 19.6199 21.5939 19.52C21.6406 19.4202 21.667 19.3121 21.6716 19.202C21.6762 19.0919 21.6589 18.982 21.6207 18.8787C21.5825 18.7753 21.5241 18.6805 21.449 18.5999L4.78333 0.280104ZM9.71354 8.17427L14.0542 12.9468C13.4005 13.2904 12.6512 13.4074 11.9238 13.2793C11.1964 13.1512 10.5322 12.7854 10.0354 12.2392C9.53868 11.693 9.23753 10.9974 9.17927 10.2617C9.12101 9.52596 9.30893 8.79171 9.71354 8.17427ZM12.5 16.6617C9.29375 16.6617 6.4927 15.497 4.17395 13.2008C3.2222 12.2556 2.41272 11.1775 1.77082 10C2.25937 9.08505 3.81874 6.52445 6.70312 4.86005L8.57812 6.91582C7.85222 7.84483 7.47837 9.00036 7.52263 10.1782C7.5669 11.356 8.02644 12.4802 8.82003 13.3522C9.61362 14.2242 10.6902 14.7878 11.8594 14.9433C13.0286 15.0988 14.2151 14.8363 15.2094 14.2021L16.7438 15.8884C15.3896 16.4075 13.9504 16.6698 12.5 16.6617ZM13.125 6.72846C12.9079 6.68705 12.7161 6.56114 12.5918 6.37843C12.4676 6.19571 12.4211 5.97117 12.4625 5.75418C12.5039 5.5372 12.6299 5.34555 12.8128 5.2214C12.9956 5.09725 13.2204 5.05076 13.4375 5.09217C14.4996 5.29792 15.4667 5.84125 16.1945 6.64112C16.9223 7.44098 17.3718 8.45452 17.476 9.53056C17.4966 9.75044 17.4289 9.96948 17.2879 10.1395C17.1469 10.3095 16.944 10.4166 16.724 10.4372C16.6979 10.4387 16.6719 10.4387 16.6458 10.4372C16.4376 10.4381 16.2365 10.361 16.0822 10.2211C15.928 10.0812 15.8318 9.88873 15.8125 9.68149C15.7424 8.96576 15.4429 8.29177 14.9587 7.75972C14.4745 7.22768 13.8314 6.866 13.125 6.72846ZM24.925 10.3393C24.8813 10.4372 23.8261 12.7719 21.45 14.8985C21.3688 14.9734 21.2735 15.0315 21.1696 15.0693C21.0658 15.1071 20.9554 15.1239 20.845 15.1187C20.7346 15.1135 20.6263 15.0863 20.5264 15.0389C20.4266 14.9914 20.3372 14.9246 20.2635 14.8423C20.1898 14.76 20.1332 14.6638 20.097 14.5595C20.0608 14.4551 20.0458 14.3445 20.0527 14.2343C20.0597 14.1241 20.0886 14.0163 20.1377 13.9173C20.1867 13.8183 20.255 13.7301 20.3385 13.6577C21.5042 12.6112 22.4834 11.3744 23.2344 10C22.5911 8.82147 21.7798 7.74259 20.826 6.79716C18.5073 4.50302 15.7063 3.33826 12.5 3.33826C11.8244 3.33744 11.1499 3.39209 10.4833 3.50168C10.3749 3.52084 10.2638 3.51834 10.1564 3.49434C10.0489 3.47033 9.94733 3.4253 9.85741 3.36183C9.7675 3.29836 9.69106 3.21772 9.63251 3.12457C9.57396 3.03141 9.53447 2.92759 9.5163 2.81909C9.49814 2.71059 9.50166 2.59958 9.52668 2.49245C9.5517 2.38533 9.59771 2.28422 9.66205 2.19496C9.7264 2.1057 9.8078 2.03007 9.90157 1.97243C9.99533 1.91479 10.0996 1.87629 10.2083 1.85914C10.9658 1.73417 11.7323 1.67185 12.5 1.67282C16.1333 1.67282 19.4344 3.05305 22.0479 5.66466C24.0094 7.62467 24.8917 9.58052 24.9281 9.66275C24.9755 9.76925 25 9.88449 25 10.001C25 10.1176 24.9755 10.2328 24.9281 10.3393H24.925Z" fill="#C6C5C5"/>
</svg>
