<svg width="1440" height="1046" viewBox="0 0 1440 1046" fill="none" xmlns="http://www.w3.org/2000/svg">
<rect width="1440" height="1046" fill="#F8F8F8"/>
<path fill-rule="evenodd" clip-rule="evenodd" d="M1440 386.185C1440.01 446.858 1418.99 549.761 1390.23 595.024C1346.44 663.949 1278.13 695.434 1192.58 706.688C1032.05 727.805 917 624.081 917 548.348C917 477.61 940.902 433.99 1008.83 386.185C1076.76 338.379 1124.23 304.238 1155.45 247.083C1186.21 190.777 1226.32 165.468 1268.22 165.468C1313.53 165.468 1357.9 182.993 1390.23 224.102C1423.22 266.041 1439.99 325.527 1440 386.185Z" fill="#E2E8F0"/>
<path fill-rule="evenodd" clip-rule="evenodd" d="M1076.97 580.959C1056.89 615.727 1033.06 680.603 1032.08 714.62C1030.57 766.421 1053.38 803.648 1091.28 834.126C1162.38 891.313 1252.67 864.183 1277.73 820.781C1301.13 780.241 1303.94 748.53 1286.71 702.054C1269.48 655.579 1257.69 622.68 1261.41 581.158C1265.08 540.251 1253.94 514.48 1233.56 502.713C1211.52 489.987 1184.14 487.571 1154.8 502.048C1124.88 516.817 1097.04 546.2 1076.97 580.959Z" fill="#FF9800"/>
<path d="M1083.31 292.545L1078.72 294.956L1079.6 289.848L1075.88 286.23L1081.01 285.484L1083.31 280.836L1085.6 285.484L1090.73 286.23L1087.02 289.848L1087.9 294.956L1083.31 292.545Z" fill="#A5C882"/>
<path d="M1105.6 55.1997L1102 57.0945L1102.68 53.0806L1099.77 50.2381L1103.8 49.6524L1105.6 46L1107.4 49.6524L1111.43 50.2381L1108.52 53.0806L1109.21 57.0945L1105.6 55.1997Z" fill="#A5C882"/>
<g clip-path="url(#clip0_523_2989)">
<path d="M1213 453.984C1211.62 453.984 1210.5 452.865 1210.5 451.484C1210.5 450.104 1211.62 448.984 1213 448.984C1214.38 448.984 1215.5 450.104 1215.5 451.484C1215.5 452.865 1214.38 453.984 1213 453.984Z" fill="#A5C882"/>
</g>
<path d="M1140.64 406.74C1138.29 406.74 1136.39 404.838 1136.39 402.493C1136.39 400.147 1138.29 398.246 1140.64 398.246C1142.98 398.246 1144.88 400.147 1144.88 402.493C1144.88 404.838 1142.98 406.74 1140.64 406.74Z" fill="#A5C882"/>
<g clip-path="url(#clip1_523_2989)">
<path d="M1107.98 239.984C1106.6 239.984 1105.48 238.865 1105.48 237.484C1105.48 236.104 1106.6 234.984 1107.98 234.984C1109.36 234.984 1110.48 236.104 1110.48 237.484C1110.48 238.865 1109.36 239.984 1107.98 239.984Z" fill="#A5C882"/>
</g>
<path d="M1154.99 306.352C1151.76 306.352 1149.15 303.738 1149.15 300.513C1149.15 297.288 1151.76 294.674 1154.99 294.674C1158.21 294.674 1160.83 297.288 1160.83 300.513C1160.83 303.738 1158.21 306.352 1154.99 306.352Z" fill="#A5C882"/>
<g clip-path="url(#clip2_523_2989)">
<path d="M1117.98 175.554C1116.81 175.554 1115.86 174.604 1115.86 173.431C1115.86 172.258 1116.81 171.308 1117.98 171.308C1119.15 171.308 1120.1 172.258 1120.1 173.431C1120.1 174.604 1119.15 175.554 1117.98 175.554Z" fill="#A5C882"/>
</g>
<g clip-path="url(#clip3_523_2989)">
<path d="M1160.46 216.667C1158.41 216.667 1156.75 215.003 1156.75 212.951C1156.75 210.899 1158.41 209.235 1160.46 209.235C1162.51 209.235 1164.18 210.899 1164.18 212.951C1164.18 215.003 1162.51 216.667 1160.46 216.667Z" fill="#A5C882"/>
</g>
<g clip-path="url(#clip4_523_2989)">
<path d="M1022.15 285.913C1020.39 285.913 1018.97 284.487 1018.97 282.728C1018.97 280.969 1020.39 279.543 1022.15 279.543C1023.91 279.543 1025.34 280.969 1025.34 282.728C1025.34 284.487 1023.91 285.913 1022.15 285.913Z" fill="#A5C882"/>
</g>
<path d="M1177.65 155.545V151.564C1177.65 151.353 1177.57 151.15 1177.42 151.001C1177.27 150.851 1177.07 150.768 1176.86 150.768C1176.64 150.768 1176.44 150.851 1176.29 151.001C1176.14 151.15 1176.06 151.353 1176.06 151.564V155.545H1172.08C1171.87 155.545 1171.66 155.629 1171.51 155.778C1171.37 155.928 1171.28 156.13 1171.28 156.341C1171.28 156.553 1171.37 156.755 1171.51 156.904C1171.66 157.054 1171.87 157.138 1172.08 157.138H1176.06V161.119C1176.06 161.33 1176.14 161.533 1176.29 161.682C1176.44 161.831 1176.64 161.915 1176.86 161.915C1177.07 161.915 1177.27 161.831 1177.42 161.682C1177.57 161.533 1177.65 161.33 1177.65 161.119V157.138H1181.63C1181.84 157.138 1182.05 157.054 1182.2 156.904C1182.34 156.755 1182.43 156.553 1182.43 156.341C1182.43 156.13 1182.34 155.928 1182.2 155.778C1182.05 155.629 1181.84 155.545 1181.63 155.545H1177.65Z" fill="#A5C882"/>
<path d="M1141.23 101.543V99.4198C1141.23 99.3072 1141.19 99.1991 1141.11 99.1195C1141.03 99.0399 1140.92 98.9951 1140.81 98.9951C1140.69 98.9951 1140.59 99.0399 1140.51 99.1195C1140.43 99.1991 1140.38 99.3072 1140.38 99.4198V101.543H1138.26C1138.15 101.543 1138.04 101.588 1137.96 101.668C1137.88 101.747 1137.83 101.855 1137.83 101.968C1137.83 102.08 1137.88 102.188 1137.96 102.268C1138.04 102.348 1138.15 102.392 1138.26 102.392H1140.38V104.516C1140.38 104.628 1140.43 104.736 1140.51 104.816C1140.59 104.896 1140.69 104.941 1140.81 104.941C1140.92 104.941 1141.03 104.896 1141.11 104.816C1141.19 104.736 1141.23 104.628 1141.23 104.516V102.392H1143.35C1143.47 102.392 1143.58 102.348 1143.65 102.268C1143.73 102.188 1143.78 102.08 1143.78 101.968C1143.78 101.855 1143.73 101.747 1143.65 101.668C1143.58 101.588 1143.47 101.543 1143.35 101.543H1141.23Z" fill="#A5C882"/>
<g clip-path="url(#clip5_523_2989)">
<path d="M1219.82 136.495C1218.06 136.495 1216.64 135.069 1216.64 133.31C1216.64 131.551 1218.06 130.125 1219.82 130.125C1221.58 130.125 1223.01 131.551 1223.01 133.31C1223.01 135.069 1221.58 136.495 1219.82 136.495Z" fill="#A5C882"/>
</g>
<path d="M1162.69 543.309V541.185C1162.69 541.073 1162.65 540.965 1162.57 540.885C1162.49 540.805 1162.38 540.761 1162.27 540.761C1162.15 540.761 1162.05 540.805 1161.97 540.885C1161.89 540.965 1161.84 541.073 1161.84 541.185V543.309H1159.72C1159.61 543.309 1159.5 543.354 1159.42 543.433C1159.34 543.513 1159.29 543.621 1159.29 543.733C1159.29 543.846 1159.34 543.954 1159.42 544.034C1159.5 544.113 1159.61 544.158 1159.72 544.158H1161.84V546.281C1161.84 546.394 1161.89 546.502 1161.97 546.582C1162.05 546.661 1162.15 546.706 1162.27 546.706C1162.38 546.706 1162.49 546.661 1162.57 546.582C1162.65 546.502 1162.69 546.394 1162.69 546.281V544.158H1164.82C1164.93 544.158 1165.04 544.113 1165.12 544.034C1165.2 543.954 1165.24 543.846 1165.24 543.733C1165.24 543.621 1165.2 543.513 1165.12 543.433C1165.04 543.354 1164.93 543.309 1164.82 543.309H1162.69Z" fill="#A5C882"/>
<path d="M1249.54 231.626L1250.47 230.688C1250.5 230.663 1250.52 230.634 1250.53 230.602C1250.55 230.569 1250.55 230.534 1250.56 230.499C1250.56 230.464 1250.55 230.429 1250.54 230.396C1250.52 230.364 1250.5 230.334 1250.48 230.309C1250.45 230.284 1250.42 230.265 1250.39 230.251C1250.36 230.238 1250.32 230.231 1250.29 230.231C1250.25 230.232 1250.22 230.239 1250.18 230.253C1250.15 230.267 1250.12 230.287 1250.1 230.312L1249.16 231.251L1248.22 230.312C1248.2 230.287 1248.17 230.267 1248.14 230.253C1248.1 230.239 1248.07 230.232 1248.03 230.231C1248 230.231 1247.96 230.238 1247.93 230.251C1247.9 230.265 1247.87 230.284 1247.84 230.309C1247.82 230.334 1247.8 230.364 1247.79 230.396C1247.77 230.429 1247.77 230.464 1247.77 230.499C1247.77 230.534 1247.77 230.569 1247.79 230.602C1247.8 230.634 1247.82 230.663 1247.85 230.688L1248.78 231.626L1247.85 232.565C1247.82 232.589 1247.8 232.618 1247.79 232.651C1247.77 232.683 1247.77 232.718 1247.77 232.753C1247.77 232.788 1247.77 232.823 1247.79 232.856C1247.8 232.889 1247.82 232.918 1247.84 232.943C1247.87 232.968 1247.9 232.988 1247.93 233.001C1247.96 233.014 1248 233.021 1248.03 233.021C1248.07 233.021 1248.1 233.013 1248.14 232.999C1248.17 232.985 1248.2 232.965 1248.22 232.94L1249.16 232.002L1250.1 232.94C1250.12 232.965 1250.15 232.985 1250.18 232.999C1250.22 233.013 1250.25 233.021 1250.29 233.021C1250.32 233.021 1250.36 233.014 1250.39 233.001C1250.42 232.988 1250.45 232.968 1250.48 232.943C1250.5 232.918 1250.52 232.889 1250.54 232.856C1250.55 232.823 1250.56 232.788 1250.56 232.753C1250.55 232.718 1250.55 232.683 1250.53 232.651C1250.52 232.618 1250.5 232.589 1250.47 232.565L1249.54 231.626V231.626Z" fill="#A5C882"/>
<path d="M1192.58 86.9433L1195.4 84.1278C1195.47 84.0543 1195.54 83.9665 1195.58 83.8693C1195.62 83.7722 1195.64 83.6677 1195.64 83.562C1195.64 83.4562 1195.62 83.3514 1195.58 83.2535C1195.54 83.1557 1195.48 83.0668 1195.41 82.992C1195.33 82.9172 1195.24 82.8581 1195.15 82.8181C1195.05 82.778 1194.94 82.7579 1194.84 82.7588C1194.73 82.7597 1194.63 82.7817 1194.53 82.8234C1194.43 82.8652 1194.35 82.9258 1194.27 83.0019L1191.46 85.8166L1188.64 83.0019C1188.57 82.9258 1188.48 82.8652 1188.38 82.8234C1188.29 82.7817 1188.18 82.7597 1188.08 82.7588C1187.97 82.7579 1187.87 82.778 1187.77 82.8181C1187.67 82.8581 1187.58 82.9172 1187.51 82.992C1187.43 83.0668 1187.37 83.1557 1187.33 83.2535C1187.29 83.3514 1187.27 83.4562 1187.27 83.562C1187.27 83.6677 1187.3 83.7722 1187.34 83.8693C1187.38 83.9665 1187.44 84.0543 1187.52 84.1278L1190.33 86.9426L1187.52 89.7581C1187.44 89.8316 1187.38 89.9194 1187.34 90.0166C1187.3 90.1137 1187.27 90.2182 1187.27 90.3239C1187.27 90.4297 1187.29 90.5345 1187.33 90.6324C1187.37 90.7302 1187.43 90.8191 1187.51 90.8939C1187.58 90.9687 1187.67 91.0278 1187.77 91.0678C1187.87 91.1079 1187.97 91.128 1188.08 91.1271C1188.18 91.1262 1188.29 91.1042 1188.38 91.0625C1188.48 91.0207 1188.57 90.9601 1188.64 90.884L1191.46 88.0693L1194.27 90.884C1194.35 90.9601 1194.43 91.0207 1194.53 91.0625C1194.63 91.1042 1194.73 91.1262 1194.84 91.1271C1194.94 91.128 1195.05 91.1079 1195.15 91.0678C1195.24 91.0278 1195.33 90.9687 1195.41 90.8939C1195.48 90.8191 1195.54 90.7302 1195.58 90.6324C1195.62 90.5345 1195.64 90.4297 1195.64 90.3239C1195.64 90.2182 1195.62 90.1137 1195.58 90.0166C1195.54 89.9194 1195.47 89.8316 1195.4 89.7581L1192.58 86.9426V86.9433Z" fill="#A5C882"/>
<path d="M1206.5 362.588V359.403C1206.5 359.234 1206.44 359.072 1206.32 358.952C1206.2 358.833 1206.04 358.766 1205.87 358.766C1205.7 358.766 1205.54 358.833 1205.42 358.952C1205.3 359.072 1205.23 359.234 1205.23 359.403V362.588H1202.05C1201.88 362.588 1201.71 362.655 1201.59 362.774C1201.48 362.894 1201.41 363.056 1201.41 363.225C1201.41 363.394 1201.48 363.556 1201.59 363.675C1201.71 363.795 1201.88 363.862 1202.05 363.862H1205.23V367.047C1205.23 367.216 1205.3 367.378 1205.42 367.497C1205.54 367.617 1205.7 367.684 1205.87 367.684C1206.04 367.684 1206.2 367.617 1206.32 367.497C1206.44 367.378 1206.5 367.216 1206.5 367.047V363.862H1209.69C1209.86 363.862 1210.02 363.795 1210.14 363.675C1210.26 363.556 1210.33 363.394 1210.33 363.225C1210.33 363.056 1210.26 362.894 1210.14 362.774C1210.02 362.655 1209.86 362.588 1209.69 362.588H1206.5Z" fill="#A5C882"/>
<path d="M924.114 310.519V307.865C924.114 307.724 924.058 307.589 923.958 307.489C923.859 307.39 923.724 307.334 923.583 307.334C923.442 307.334 923.307 307.39 923.208 307.489C923.108 307.589 923.052 307.724 923.052 307.865V310.519H920.398C920.257 310.519 920.122 310.575 920.023 310.674C919.923 310.774 919.867 310.909 919.867 311.05C919.867 311.191 919.923 311.326 920.023 311.425C920.122 311.525 920.257 311.581 920.398 311.581H923.052V314.235C923.052 314.376 923.108 314.511 923.208 314.61C923.307 314.71 923.442 314.766 923.583 314.766C923.724 314.766 923.859 314.71 923.958 314.61C924.058 314.511 924.114 314.376 924.114 314.235V311.581H926.768C926.909 311.581 927.044 311.525 927.143 311.425C927.243 311.326 927.299 311.191 927.299 311.05C927.299 310.909 927.243 310.774 927.143 310.674C927.044 310.575 926.909 310.519 926.768 310.519H924.114Z" fill="#A5C882"/>
<path d="M1208.66 258.522L1210.16 257.02C1210.2 256.981 1210.23 256.934 1210.25 256.882C1210.28 256.831 1210.29 256.775 1210.29 256.718C1210.29 256.662 1210.28 256.606 1210.26 256.554C1210.23 256.502 1210.2 256.454 1210.16 256.414C1210.12 256.375 1210.08 256.343 1210.02 256.322C1209.97 256.3 1209.92 256.29 1209.86 256.29C1209.8 256.291 1209.75 256.302 1209.7 256.325C1209.64 256.347 1209.6 256.379 1209.56 256.42L1208.06 257.921L1206.55 256.42C1206.52 256.379 1206.47 256.347 1206.42 256.325C1206.36 256.302 1206.31 256.291 1206.25 256.29C1206.2 256.29 1206.14 256.3 1206.09 256.322C1206.04 256.343 1205.99 256.375 1205.95 256.414C1205.91 256.454 1205.88 256.502 1205.86 256.554C1205.83 256.606 1205.82 256.662 1205.82 256.718C1205.82 256.775 1205.84 256.831 1205.86 256.882C1205.88 256.934 1205.91 256.981 1205.95 257.02L1207.46 258.521L1205.95 260.023C1205.91 260.062 1205.88 260.109 1205.86 260.161C1205.84 260.213 1205.82 260.268 1205.82 260.325C1205.82 260.381 1205.83 260.437 1205.86 260.489C1205.88 260.541 1205.91 260.589 1205.95 260.629C1205.99 260.669 1206.04 260.7 1206.09 260.722C1206.14 260.743 1206.2 260.754 1206.25 260.753C1206.31 260.753 1206.36 260.741 1206.42 260.719C1206.47 260.696 1206.52 260.664 1206.55 260.623L1208.06 259.122L1209.56 260.623C1209.6 260.664 1209.64 260.696 1209.7 260.719C1209.75 260.741 1209.8 260.753 1209.86 260.753C1209.92 260.754 1209.97 260.743 1210.02 260.722C1210.08 260.7 1210.12 260.669 1210.16 260.629C1210.2 260.589 1210.23 260.541 1210.26 260.489C1210.28 260.437 1210.29 260.381 1210.29 260.325C1210.29 260.268 1210.28 260.213 1210.25 260.161C1210.23 260.109 1210.2 260.062 1210.16 260.023L1208.66 258.521V258.522Z" fill="#A5C882"/>
<path fill-rule="evenodd" clip-rule="evenodd" d="M179.312 738.667C233.321 697.448 125.714 659.253 168.43 614.919C288.142 490.672 124.898 483.621 195.638 415.602C306.093 309.395 561.283 585.221 561.283 634.07C561.283 679.697 544.052 707.832 495.078 738.667C446.105 769.502 411.883 791.523 389.377 828.389C367.204 864.707 330.766 911.684 239.17 911.684C206.502 911.684 75.0176 897.173 62.3216 853.641C52.2367 819.063 144.85 764.967 179.312 738.667Z" fill="#FF9800"/>
<path d="M128.024 408.746L131.625 406.853L130.937 410.863L133.852 413.703L129.825 414.288L128.024 417.937L126.223 414.288L122.197 413.703L125.111 410.863L124.423 406.853L128.024 408.746Z" fill="#A5C882"/>
<g clip-path="url(#clip6_523_2989)">
<path d="M133.523 644.043L136.352 642.555L135.812 645.706L138.102 647.937L134.938 648.397L133.523 651.264L132.108 648.397L128.945 647.937L131.234 645.706L130.693 642.555L133.523 644.043Z" fill="#A5C882"/>
</g>
<g clip-path="url(#clip7_523_2989)">
<path d="M104.488 466.032C106.099 466.032 107.404 467.338 107.404 468.949C107.404 470.559 106.099 471.865 104.488 471.865C102.877 471.865 101.571 470.559 101.571 468.949C101.571 467.338 102.877 466.032 104.488 466.032Z" fill="#A5C882"/>
</g>
<g clip-path="url(#clip8_523_2989)">
<path d="M105.973 353.112C107.814 353.112 109.307 354.604 109.307 356.445C109.307 358.286 107.814 359.778 105.973 359.778C104.132 359.778 102.64 358.286 102.64 356.445C102.64 354.604 104.132 353.112 105.973 353.112Z" fill="#A5C882"/>
</g>
<g clip-path="url(#clip9_523_2989)">
<path d="M41.0228 333.273C43.324 333.273 45.1895 335.139 45.1895 337.44C45.1895 339.741 43.324 341.606 41.0228 341.606C38.7215 341.606 36.8561 339.741 36.8561 337.44C36.8561 335.139 38.7215 333.273 41.0228 333.273Z" fill="#A5C882"/>
</g>
<g clip-path="url(#clip10_523_2989)">
<path d="M73.9759 427.273C76.2772 427.273 78.1426 429.139 78.1426 431.44C78.1426 433.741 76.2772 435.606 73.9759 435.606C71.6747 435.606 69.8092 433.741 69.8092 431.44C69.8092 429.139 71.6747 427.273 73.9759 427.273Z" fill="#A5C882"/>
</g>
<g clip-path="url(#clip11_523_2989)">
<path d="M123.524 774.354C126.055 774.354 128.107 776.406 128.107 778.937C128.107 781.469 126.055 783.521 123.524 783.521C120.993 783.521 118.941 781.469 118.941 778.937C118.941 776.406 120.993 774.354 123.524 774.354Z" fill="#A5C882"/>
</g>
<g clip-path="url(#clip12_523_2989)">
<path d="M123.023 548.79C123.943 548.79 124.689 549.536 124.689 550.456C124.689 551.377 123.943 552.123 123.023 552.123C122.102 552.123 121.356 551.377 121.356 550.456C121.356 549.536 122.102 548.79 123.023 548.79Z" fill="#A5C882"/>
</g>
<path d="M3.49935 512.032C5.11022 512.032 6.41602 513.338 6.41602 514.949C6.41602 516.559 5.11022 517.865 3.49935 517.865C1.88847 517.865 0.582682 516.559 0.582682 514.949C0.582682 513.338 1.88847 512.032 3.49935 512.032Z" fill="#A5C882"/>
<g clip-path="url(#clip13_523_2989)">
<path d="M8.97656 744.95C10.3573 744.95 11.4766 746.069 11.4766 747.45C11.4766 748.831 10.3573 749.95 8.97656 749.95C7.59581 749.95 6.47656 748.831 6.47656 747.45C6.47656 746.069 7.59581 744.95 8.97656 744.95Z" fill="#A5C882"/>
</g>
<path d="M88.6484 679.342V682.467C88.6484 682.633 88.7143 682.792 88.8315 682.909C88.9487 683.026 89.1077 683.092 89.2734 683.092C89.4392 683.092 89.5982 683.026 89.7154 682.909C89.8326 682.792 89.8984 682.633 89.8984 682.467V679.342H93.0234C93.1892 679.342 93.3482 679.276 93.4654 679.159C93.5826 679.042 93.6484 678.883 93.6484 678.717C93.6484 678.551 93.5826 678.392 93.4654 678.275C93.3482 678.158 93.1892 678.092 93.0234 678.092H89.8984V674.967C89.8984 674.801 89.8326 674.642 89.7154 674.525C89.5982 674.408 89.4392 674.342 89.2734 674.342C89.1077 674.342 88.9487 674.408 88.8315 674.525C88.7143 674.642 88.6484 674.801 88.6484 674.967V678.092H85.5234C85.3577 678.092 85.1987 678.158 85.0815 678.275C84.9643 678.392 84.8984 678.551 84.8984 678.717C84.8984 678.883 84.9643 679.042 85.0815 679.159C85.1987 679.276 85.3577 679.342 85.5234 679.342H88.6484Z" fill="#A5C882"/>
<path d="M105.556 607.667V609.334C105.556 609.422 105.591 609.507 105.654 609.569C105.716 609.632 105.801 609.667 105.889 609.667C105.978 609.667 106.063 609.632 106.125 609.569C106.188 609.507 106.223 609.422 106.223 609.334V607.667H107.889C107.978 607.667 108.063 607.632 108.125 607.569C108.188 607.507 108.223 607.422 108.223 607.334C108.223 607.245 108.188 607.16 108.125 607.098C108.063 607.035 107.978 607 107.889 607H106.223V605.334C106.223 605.245 106.188 605.16 106.125 605.098C106.063 605.035 105.978 605 105.889 605C105.801 605 105.716 605.035 105.654 605.098C105.591 605.16 105.556 605.245 105.556 605.334V607H103.889C103.801 607 103.716 607.035 103.654 607.098C103.591 607.16 103.556 607.245 103.556 607.334C103.556 607.422 103.591 607.507 103.654 607.569C103.716 607.632 103.801 607.667 103.889 607.667H105.556Z" fill="#A5C882"/>
<g clip-path="url(#clip14_523_2989)">
<path d="M49.0234 571.95C50.4042 571.95 51.5234 573.069 51.5234 574.45C51.5234 575.831 50.4042 576.95 49.0234 576.95C47.6427 576.95 46.5234 575.831 46.5234 574.45C46.5234 573.069 47.6427 571.95 49.0234 571.95Z" fill="#A5C882"/>
</g>
<path d="M89.3242 300.767V303.267C89.3242 303.399 89.3769 303.526 89.4707 303.62C89.5644 303.714 89.6916 303.767 89.8242 303.767C89.9568 303.767 90.084 303.714 90.1778 303.62C90.2715 303.526 90.3242 303.399 90.3242 303.267V300.767H92.8242C92.9568 300.767 93.084 300.714 93.1778 300.62C93.2715 300.526 93.3242 300.399 93.3242 300.267C93.3242 300.134 93.2715 300.007 93.1778 299.913C93.084 299.819 92.9568 299.767 92.8242 299.767H90.3242V297.267C90.3242 297.134 90.2715 297.007 90.1778 296.913C90.084 296.819 89.9568 296.767 89.8242 296.767C89.6916 296.767 89.5644 296.819 89.4707 296.913C89.3769 297.007 89.3242 297.134 89.3242 297.267V299.767H86.8242C86.6916 299.767 86.5644 299.819 86.4707 299.913C86.3769 300.007 86.3242 300.134 86.3242 300.267C86.3242 300.399 86.3769 300.526 86.4707 300.62C86.5644 300.714 86.6916 300.767 86.8242 300.767H89.3242Z" fill="#A5C882"/>
<path d="M3.24924 423.987L2.51278 424.724C2.49288 424.743 2.47701 424.766 2.46609 424.791C2.45517 424.817 2.44943 424.844 2.44918 424.872C2.44894 424.9 2.45422 424.927 2.46469 424.953C2.47517 424.978 2.49064 425.001 2.5102 425.021C2.52976 425.041 2.55302 425.056 2.57862 425.067C2.60422 425.077 2.63166 425.082 2.65932 425.082C2.68698 425.082 2.71432 425.076 2.73974 425.065C2.76516 425.054 2.78814 425.038 2.80736 425.018L3.54403 424.282L4.28049 425.018C4.2997 425.038 4.32269 425.054 4.34811 425.065C4.37353 425.076 4.40087 425.082 4.42853 425.082C4.45619 425.082 4.48362 425.077 4.50923 425.067C4.53483 425.056 4.55809 425.041 4.57765 425.021C4.59721 425.001 4.61268 424.978 4.62316 424.953C4.63363 424.927 4.6389 424.9 4.63866 424.872C4.63842 424.844 4.63268 424.817 4.62176 424.791C4.61084 424.766 4.59497 424.743 4.57507 424.724L3.83861 423.987L4.57507 423.251C4.59497 423.232 4.61084 423.209 4.62176 423.183C4.63268 423.158 4.63842 423.13 4.63866 423.103C4.6389 423.075 4.63363 423.048 4.62316 423.022C4.61268 422.996 4.59721 422.973 4.57765 422.954C4.55809 422.934 4.53483 422.919 4.50923 422.908C4.48362 422.898 4.45619 422.892 4.42853 422.893C4.40087 422.893 4.37353 422.899 4.34811 422.909C4.32269 422.92 4.2997 422.936 4.28049 422.956L3.54403 423.693L2.80736 422.956C2.78814 422.936 2.76516 422.92 2.73974 422.909C2.71432 422.899 2.68698 422.893 2.65932 422.893C2.63166 422.892 2.60422 422.898 2.57862 422.908C2.55302 422.919 2.52976 422.934 2.5102 422.954C2.49064 422.973 2.47517 422.996 2.46469 423.022C2.45422 423.048 2.44894 423.075 2.44918 423.103C2.44943 423.13 2.45517 423.158 2.46609 423.183C2.47701 423.209 2.49288 423.232 2.51278 423.251L3.24924 423.987V423.987Z" fill="#A5C882"/>
<path d="M101.703 834.029L99.4934 836.239C99.4337 836.297 99.3861 836.366 99.3534 836.442C99.3206 836.518 99.3034 836.6 99.3026 836.683C99.3019 836.766 99.3177 836.848 99.3491 836.925C99.3806 837.002 99.427 837.072 99.4857 837.13C99.5443 837.189 99.6141 837.236 99.6909 837.267C99.7678 837.298 99.8501 837.314 99.933 837.313C100.016 837.313 100.098 837.295 100.174 837.263C100.251 837.23 100.32 837.182 100.377 837.123L102.587 834.913L104.797 837.123C104.854 837.182 104.923 837.23 104.999 837.263C105.076 837.295 105.158 837.313 105.241 837.313C105.324 837.314 105.406 837.298 105.483 837.267C105.56 837.236 105.629 837.189 105.688 837.13C105.747 837.072 105.793 837.002 105.825 836.925C105.856 836.848 105.872 836.766 105.871 836.683C105.87 836.6 105.853 836.518 105.82 836.442C105.788 836.366 105.74 836.297 105.68 836.239L103.471 834.03L105.68 831.82C105.74 831.762 105.788 831.693 105.82 831.617C105.853 831.54 105.87 831.458 105.871 831.375C105.872 831.292 105.856 831.21 105.825 831.133C105.793 831.057 105.747 830.987 105.688 830.928C105.629 830.869 105.56 830.823 105.483 830.792C105.406 830.76 105.324 830.744 105.241 830.745C105.158 830.746 105.076 830.763 104.999 830.796C104.923 830.828 104.854 830.876 104.797 830.936L102.587 833.145L100.377 830.936C100.32 830.876 100.251 830.828 100.174 830.796C100.098 830.763 100.016 830.746 99.933 830.745C99.8501 830.744 99.7678 830.76 99.6909 830.792C99.6141 830.823 99.5443 830.869 99.4857 830.928C99.427 830.987 99.3806 831.057 99.3491 831.133C99.3177 831.21 99.3019 831.292 99.3026 831.375C99.3034 831.458 99.3206 831.54 99.3534 831.617C99.3861 831.693 99.4337 831.762 99.4934 831.82L101.703 834.03V834.029Z" fill="#A5C882"/>
<path d="M9.28906 265.768V268.268C9.28906 268.4 9.34174 268.527 9.43551 268.621C9.52928 268.715 9.65645 268.768 9.78906 268.768C9.92167 268.768 10.0488 268.715 10.1426 268.621C10.2364 268.527 10.2891 268.4 10.2891 268.268V265.768H12.7891C12.9217 265.768 13.0488 265.715 13.1426 265.621C13.2364 265.527 13.2891 265.4 13.2891 265.268C13.2891 265.135 13.2364 265.008 13.1426 264.914C13.0488 264.82 12.9217 264.768 12.7891 264.768H10.2891V262.268C10.2891 262.135 10.2364 262.008 10.1426 261.914C10.0488 261.82 9.92167 261.768 9.78906 261.768C9.65645 261.768 9.52928 261.82 9.43551 261.914C9.34174 262.008 9.28906 262.135 9.28906 262.268V264.768H6.78906C6.65645 264.768 6.52928 264.82 6.43551 264.914C6.34174 265.008 6.28906 265.135 6.28906 265.268C6.28906 265.4 6.34174 265.527 6.43551 265.621C6.52928 265.715 6.65645 265.768 6.78906 265.768H9.28906Z" fill="#A5C882"/>
<path d="M76.4401 779.717V781.8C76.4401 781.911 76.484 782.017 76.5621 782.095C76.6403 782.173 76.7463 782.217 76.8568 782.217C76.9673 782.217 77.0733 782.173 77.1514 782.095C77.2295 782.017 77.2734 781.911 77.2734 781.8V779.717H79.3568C79.4673 779.717 79.5733 779.673 79.6514 779.595C79.7295 779.517 79.7734 779.411 79.7734 779.3C79.7734 779.19 79.7295 779.084 79.6514 779.006C79.5733 778.927 79.4673 778.883 79.3568 778.883H77.2734V776.8C77.2734 776.69 77.2295 776.584 77.1514 776.506C77.0733 776.427 76.9673 776.383 76.8568 776.383C76.7463 776.383 76.6403 776.427 76.5621 776.506C76.484 776.584 76.4401 776.69 76.4401 776.8V778.883H74.3568C74.2463 778.883 74.1403 778.927 74.0621 779.006C73.984 779.084 73.9401 779.19 73.9401 779.3C73.9401 779.411 73.984 779.517 74.0621 779.595C74.1403 779.673 74.2463 779.717 74.3568 779.717H76.4401Z" fill="#A5C882"/>
<path d="M26.5855 450.5L25.4072 451.679C25.3753 451.71 25.3499 451.746 25.3325 451.787C25.315 451.828 25.3058 451.871 25.3054 451.916C25.305 451.96 25.3135 452.004 25.3302 452.045C25.347 452.086 25.3717 452.123 25.403 452.154C25.4343 452.186 25.4715 452.21 25.5125 452.227C25.5535 452.244 25.5974 452.252 25.6416 452.252C25.6859 452.252 25.7296 452.242 25.7703 452.225C25.811 452.207 25.8477 452.182 25.8785 452.15L27.0572 450.972L28.2355 452.15C28.2662 452.182 28.303 452.207 28.3437 452.225C28.3844 452.242 28.4281 452.252 28.4724 452.252C28.5166 452.252 28.5605 452.244 28.6015 452.227C28.6424 452.21 28.6797 452.186 28.711 452.154C28.7423 452.123 28.767 452.086 28.7838 452.045C28.8005 452.004 28.809 451.96 28.8086 451.916C28.8082 451.871 28.799 451.828 28.7815 451.787C28.7641 451.746 28.7387 451.71 28.7068 451.679L27.5285 450.501L28.7068 449.322C28.7387 449.291 28.7641 449.254 28.7815 449.214C28.799 449.173 28.8082 449.129 28.8086 449.085C28.809 449.041 28.8005 448.997 28.7838 448.956C28.767 448.915 28.7423 448.878 28.711 448.846C28.6797 448.815 28.6424 448.79 28.6015 448.774C28.5605 448.757 28.5166 448.748 28.4724 448.749C28.4281 448.749 28.3844 448.758 28.3437 448.776C28.303 448.793 28.2662 448.819 28.2355 448.851L27.0572 450.029L25.8785 448.851C25.8477 448.819 25.811 448.793 25.7703 448.776C25.7296 448.758 25.6859 448.749 25.6416 448.749C25.5974 448.748 25.5535 448.757 25.5125 448.774C25.4715 448.79 25.4343 448.815 25.403 448.846C25.3717 448.878 25.347 448.915 25.3302 448.956C25.3135 448.997 25.305 449.041 25.3054 449.085C25.3058 449.129 25.315 449.173 25.3325 449.214C25.3499 449.254 25.3753 449.291 25.4072 449.322L26.5855 450.501V450.5Z" fill="#A5C882"/>
<defs>
<clipPath id="clip0_523_2989">
<rect width="6" height="6" fill="white" transform="translate(1210 448.468)"/>
</clipPath>
<clipPath id="clip1_523_2989">
<rect width="6" height="6" fill="white" transform="translate(1104.98 234.468)"/>
</clipPath>
<clipPath id="clip2_523_2989">
<rect width="5.09605" height="5.09605" fill="white" transform="translate(1115.43 170.869)"/>
</clipPath>
<clipPath id="clip3_523_2989">
<rect width="8.91808" height="8.91808" fill="white" transform="translate(1156 208.468)"/>
</clipPath>
<clipPath id="clip4_523_2989">
<rect width="7.64407" height="7.64407" fill="white" transform="translate(1018.33 278.886)"/>
</clipPath>
<clipPath id="clip5_523_2989">
<rect width="7.64407" height="7.64407" fill="white" transform="translate(1216 129.468)"/>
</clipPath>
<clipPath id="clip6_523_2989">
<rect width="11" height="11" fill="white" transform="matrix(-1 0 0 -1 139.023 652.467)"/>
</clipPath>
<clipPath id="clip7_523_2989">
<rect width="7" height="7" fill="white" transform="matrix(-1 0 0 -1 107.988 472.468)"/>
</clipPath>
<clipPath id="clip8_523_2989">
<rect width="8" height="8" fill="white" transform="matrix(-1 0 0 -1 109.973 360.467)"/>
</clipPath>
<clipPath id="clip9_523_2989">
<rect width="10" height="10" fill="white" transform="matrix(-1 0 0 -1 46.0234 342.467)"/>
</clipPath>
<clipPath id="clip10_523_2989">
<rect width="10" height="10" fill="white" transform="matrix(-1 0 0 -1 78.9766 436.467)"/>
</clipPath>
<clipPath id="clip11_523_2989">
<rect width="11" height="11" fill="white" transform="matrix(-1 0 0 -1 129.023 784.467)"/>
</clipPath>
<clipPath id="clip12_523_2989">
<rect width="4" height="4" fill="white" transform="matrix(-1 0 0 -1 125.023 552.467)"/>
</clipPath>
<clipPath id="clip13_523_2989">
<rect width="6" height="6" fill="white" transform="matrix(-1 0 0 -1 11.9766 750.467)"/>
</clipPath>
<clipPath id="clip14_523_2989">
<rect width="6" height="6" fill="white" transform="matrix(-1 0 0 -1 52.0234 577.467)"/>
</clipPath>
</defs>
</svg>
