<svg width="24" height="24" viewBox="0 0 24 24" fill="none" xmlns="http://www.w3.org/2000/svg">
<path d="M21.1004 8.87518L12.7004 17.3002C12.6004 17.4002 12.4921 17.4712 12.3754 17.5132C12.2587 17.5552 12.1337 17.5758 12.0004 17.5752C11.8671 17.5752 11.7421 17.5545 11.6254 17.5132C11.5087 17.4718 11.4004 17.4008 11.3004 17.3002L2.87539 8.87518C2.64206 8.64185 2.52539 8.35018 2.52539 8.00018C2.52539 7.65018 2.65039 7.35018 2.90039 7.10018C3.15039 6.85018 3.44206 6.72518 3.77539 6.72518C4.10872 6.72518 4.40039 6.85018 4.65039 7.10018L12.0004 14.4502L19.3504 7.10018C19.5837 6.86685 19.8714 6.75018 20.2134 6.75018C20.5554 6.75018 20.8511 6.87518 21.1004 7.12518C21.3504 7.37518 21.4754 7.66685 21.4754 8.00018C21.4754 8.33351 21.3504 8.62518 21.1004 8.87518Z" fill="#FF9800"/>
</svg>
