<svg width="30" height="30" viewBox="0 0 30 30" fill="none" xmlns="http://www.w3.org/2000/svg">
<g clip-path="url(#clip0_316_2013)">
<path d="M15.125 23.1875L15 23.3125L14.8625 23.1875C8.925 17.8 5 14.2375 5 10.625C5 8.125 6.875 6.25 9.375 6.25C11.3 6.25 13.175 7.5 13.8375 9.2H16.1625C16.825 7.5 18.7 6.25 20.625 6.25C23.125 6.25 25 8.125 25 10.625C25 14.2375 21.075 17.8 15.125 23.1875ZM20.625 3.75C18.45 3.75 16.3625 4.7625 15 6.35C13.6375 4.7625 11.55 3.75 9.375 3.75C5.525 3.75 2.5 6.7625 2.5 10.625C2.5 15.3375 6.75 19.2 13.1875 25.0375L15 26.6875L16.8125 25.0375C23.25 19.2 27.5 15.3375 27.5 10.625C27.5 6.7625 24.475 3.75 20.625 3.75Z" fill="#FF9800"/>
<path d="M15 26.6875L13.1875 25.0375C6.75 19.2 2.5 15.3375 2.5 10.625C2.5 6.7625 5.525 3.75 9.375 3.75C11.55 3.75 13.6375 4.7625 15 6.35C16.3625 4.7625 18.45 3.75 20.625 3.75C24.475 3.75 27.5 6.7625 27.5 10.625C27.5 15.3375 23.25 19.2 16.8125 25.0375L15 26.6875Z" fill="#FF9800"/>
</g>
<defs>
<clipPath id="clip0_316_2013">
<rect width="30" height="30" fill="white"/>
</clipPath>
</defs>
</svg>
