<svg width="18" height="18" viewBox="0 0 18 18" fill="none" xmlns="http://www.w3.org/2000/svg">
<path d="M10.0814 1.25496C10.0121 1.19731 9.92988 1.15718 9.84177 1.13794C9.75367 1.11871 9.66224 1.12094 9.57518 1.14445C9.48812 1.16795 9.40798 1.21204 9.34153 1.27301C9.27508 1.33397 9.22426 1.41001 9.19336 1.49473L7.64648 5.74231L5.94773 4.09629C5.89068 4.04096 5.82256 3.99834 5.74784 3.97125C5.67313 3.94416 5.59352 3.93321 5.51426 3.93913C5.43501 3.94504 5.3579 3.96768 5.28803 4.00556C5.21816 4.04343 5.15711 4.09569 5.10891 4.15887C3.58594 6.15434 2.8125 8.16176 2.8125 10.1249C2.8125 11.7659 3.4644 13.3397 4.62478 14.5001C5.78516 15.6605 7.35897 16.3124 9 16.3124C10.641 16.3124 12.2148 15.6605 13.3752 14.5001C14.5356 13.3397 15.1875 11.7659 15.1875 10.1249C15.1875 5.94481 11.6163 2.53114 10.0814 1.25496ZM12.9298 10.7816C12.7839 11.5963 12.3919 12.3468 11.8066 12.932C11.2213 13.5172 10.4708 13.909 9.65602 14.0547C9.62513 14.0599 9.59384 14.0625 9.5625 14.0624C9.4214 14.0623 9.28547 14.0093 9.18166 13.9137C9.07786 13.8182 9.01376 13.6871 9.00208 13.5465C8.9904 13.4058 9.03199 13.266 9.1186 13.1546C9.20522 13.0432 9.33053 12.9684 9.46969 12.9451C10.6348 12.7489 11.6234 11.7604 11.8209 10.5932C11.8459 10.446 11.9283 10.3149 12.05 10.2285C12.1718 10.1421 12.3228 10.1076 12.4699 10.1326C12.6171 10.1576 12.7482 10.24 12.8346 10.3617C12.921 10.4834 12.9555 10.6345 12.9305 10.7816H12.9298Z" fill="#FF9800"/>
</svg>
