<svg width="56" height="56" viewBox="0 0 56 56" fill="none" xmlns="http://www.w3.org/2000/svg">
<circle cx="28" cy="28" r="28" fill="#FF9800"/>
<path d="M28 28.2339H18.75C18.75 32.8419 24.5485 36.8039 24.5485 36.8039H28" stroke="white" stroke-linecap="round" stroke-linejoin="round"/>
<path d="M21.4424 29.2872C21.4424 32.6832 25.2564 35.1892 25.2564 35.1892M28.0004 28.2342H37.2504C37.2504 32.8422 31.4519 36.8042 31.4519 36.8042H28.0004M23.0474 28.2342C22.3744 25.7147 26.8744 23.9827 30.9124 23.4477L31.3074 22.7207L32.8994 24.6557L32.0259 24.7977C31.5984 26.2027 29.4584 28.2342 29.4584 28.2342" stroke="white" stroke-linecap="round" stroke-linejoin="round"/>
<path d="M23.7549 28.2341C23.8989 26.9371 25.4029 25.4771 31.1409 23.7246" stroke="white" stroke-linecap="round" stroke-linejoin="round"/>
<path d="M31.2894 23.9051C29.1194 24.9921 26.5894 26.2411 24.8164 28.2341M31.7129 24.4186C29.4579 27.4816 28.0004 28.2341 28.0004 28.2341M26.7529 28.2341C28.1129 27.4391 31.4979 24.1571 31.4979 24.1571M32.5389 24.2266L36.6144 20.9236C36.6813 20.8694 36.7369 20.8026 36.778 20.7269C36.8191 20.6512 36.8449 20.5682 36.8538 20.4826C36.8628 20.3969 36.8548 20.3104 36.8303 20.2278C36.8057 20.1453 36.7652 20.0684 36.7109 20.0016C36.6567 19.9347 36.5899 19.8791 36.5142 19.8381C36.4385 19.797 36.3555 19.7713 36.2699 19.7624C36.1843 19.7534 36.0977 19.7614 36.0152 19.7859C35.9327 19.8104 35.8558 19.8509 35.7889 19.9051L31.7129 23.2076" stroke="white" stroke-linecap="round" stroke-linejoin="round"/>
<path d="M30.9121 23.4473L32.0251 24.7973" stroke="white" stroke-linecap="round" stroke-linejoin="round"/>
</svg>
