<svg width="40" height="40" viewBox="0 0 40 40" fill="none" xmlns="http://www.w3.org/2000/svg">
<circle cx="20" cy="20" r="20" fill="white"/>
<path d="M31.1921 14.4635C31.1353 14.3264 31.0392 14.2093 30.9159 14.1269C30.7926 14.0444 30.6476 14.0004 30.4993 14.0004H27.6465C27.2476 13.3218 26.6799 12.758 25.9987 12.3637C25.3174 11.9694 24.5457 11.7581 23.7586 11.7504C23.1723 11.7427 22.5902 11.8524 22.0469 12.0729C21.5035 12.2935 21.0097 12.6205 20.5946 13.0348C20.1673 13.454 19.8282 13.9545 19.5972 14.5067C19.3662 15.0589 19.2479 15.6518 19.2493 16.2504V16.8213C15.4749 15.8257 12.3877 12.7554 12.3549 12.7226C12.2543 12.6211 12.1267 12.5504 11.9873 12.5189C11.8479 12.4875 11.7024 12.4965 11.5679 12.545C11.4335 12.5935 11.3156 12.6793 11.2283 12.7925C11.1411 12.9057 11.0879 13.0415 11.0752 13.1838C10.6711 17.6641 11.9724 20.6623 13.1377 22.3882C13.7059 23.2414 14.3971 24.0059 15.189 24.6569C13.7611 26.3004 11.513 27.1638 11.4886 27.1732C11.3828 27.2128 11.2873 27.2759 11.2093 27.3576C11.1312 27.4393 11.0727 27.5377 11.0379 27.6452C11.0032 27.7528 10.9933 27.8668 11.0088 27.9787C11.0244 28.0906 11.065 28.1976 11.1277 28.2916C11.198 28.3966 11.4793 28.7651 12.1665 29.1091C13.0158 29.5348 14.138 29.7504 15.4993 29.7504C22.1246 29.7504 27.6605 24.6485 28.2258 18.0841L31.0299 15.281C31.1347 15.1761 31.2061 15.0424 31.235 14.8969C31.2639 14.7513 31.2489 14.6005 31.1921 14.4635ZM26.9733 17.2207C26.8447 17.3496 26.7674 17.5209 26.7558 17.7026C26.3743 23.6173 21.4318 28.2504 15.4993 28.2504C14.5093 28.2504 13.8118 28.1191 13.3224 27.9616C14.4015 27.3757 15.9061 26.3679 16.8736 24.9166C16.9304 24.8313 16.9691 24.7352 16.9873 24.6344C17.0055 24.5335 17.0029 24.4299 16.9795 24.3301C16.9561 24.2303 16.9125 24.1364 16.8515 24.0541C16.7904 23.9718 16.713 23.9029 16.6243 23.8516C16.5802 23.8263 12.5077 21.3823 12.4993 14.8516C13.9993 16.0704 16.7415 17.9613 19.8746 18.4882C19.982 18.5063 20.092 18.5008 20.197 18.4721C20.3021 18.4434 20.3996 18.3921 20.4828 18.3219C20.5661 18.2517 20.633 18.1642 20.679 18.0655C20.725 17.9668 20.749 17.8593 20.7493 17.7504V16.2504C20.7484 15.8503 20.8276 15.4541 20.9822 15.0851C21.1367 14.7161 21.3636 14.3817 21.6493 14.1016C21.9232 13.8272 22.2493 13.6105 22.6084 13.4643C22.9675 13.3181 23.3522 13.2453 23.7399 13.2504C24.9268 13.2654 26.0358 13.9891 26.4999 15.0513C26.5584 15.1849 26.6545 15.2985 26.7766 15.3782C26.8986 15.458 27.0413 15.5004 27.1871 15.5004H28.6871L26.9733 17.2207Z" fill="black"/>
</svg>
