<svg width="40" height="40" viewBox="0 0 40 40" fill="none" xmlns="http://www.w3.org/2000/svg">
<circle cx="20" cy="20" r="20" fill="white"/>
<path d="M23.4163 19.3756L18.9163 16.3756C18.8033 16.3003 18.6719 16.257 18.5363 16.2504C18.4006 16.2438 18.2657 16.2742 18.146 16.3383C18.0263 16.4024 17.9262 16.4978 17.8564 16.6144C17.7867 16.7309 17.7499 16.8642 17.75 17V23C17.7499 23.1358 17.7867 23.2691 17.8564 23.3856C17.9262 23.5022 18.0263 23.5976 18.146 23.6617C18.2657 23.7258 18.4006 23.7562 18.5363 23.7496C18.6719 23.743 18.8033 23.6998 18.9163 23.6244L23.4163 20.6244C23.5191 20.5559 23.6035 20.4631 23.6618 20.3542C23.7202 20.2452 23.7507 20.1236 23.7507 20C23.7507 19.8764 23.7202 19.7548 23.6618 19.6458C23.6035 19.5369 23.5191 19.4441 23.4163 19.3756ZM19.25 21.5984V18.4063L21.6481 20L19.25 21.5984ZM29.9684 14.5175C29.8801 14.1719 29.7109 13.8522 29.4747 13.5849C29.2385 13.3176 28.9421 13.1102 28.61 12.98C25.3962 11.7388 20.2812 11.75 20 11.75C19.7188 11.75 14.6037 11.7388 11.39 12.98C11.0579 13.1102 10.7615 13.3176 10.5253 13.5849C10.2891 13.8522 10.1199 14.1719 10.0316 14.5175C9.78875 15.4531 9.5 17.1631 9.5 20C9.5 22.8369 9.78875 24.5469 10.0316 25.4825C10.1198 25.8283 10.289 26.1481 10.5252 26.4156C10.7614 26.6831 11.0578 26.8906 11.39 27.0209C14.4688 28.2088 19.2875 28.25 19.9381 28.25H20.0619C20.7125 28.25 25.5341 28.2088 28.61 27.0209C28.9422 26.8906 29.2386 26.6831 29.4748 26.4156C29.711 26.1481 29.8802 25.8283 29.9684 25.4825C30.2113 24.545 30.5 22.8369 30.5 20C30.5 17.1631 30.2113 15.4531 29.9684 14.5175ZM28.5163 25.1113C28.4877 25.2263 28.4323 25.3329 28.3545 25.4224C28.2768 25.5118 28.179 25.5816 28.0691 25.6259C25.1019 26.7716 20.0553 26.7509 20.0066 26.7509H20C19.9494 26.7509 14.9066 26.7697 11.9375 25.6259C11.8276 25.5816 11.7298 25.5118 11.652 25.4224C11.5743 25.3329 11.5189 25.2263 11.4903 25.1113C11.2625 24.2553 11 22.6784 11 20C11 17.3216 11.2625 15.7447 11.4837 14.8934C11.5118 14.7777 11.567 14.6704 11.6447 14.5802C11.7225 14.4901 11.8206 14.4197 11.9309 14.375C14.7922 13.2697 19.5866 13.25 19.9794 13.25H20.0047C20.0553 13.25 25.1028 13.2331 28.0672 14.375C28.1771 14.4194 28.2749 14.4891 28.3526 14.5786C28.4304 14.6681 28.4858 14.7747 28.5144 14.8897C28.7375 15.7447 29 17.3216 29 20C29 22.6784 28.7375 24.2553 28.5163 25.1066V25.1113Z" fill="black"/>
</svg>
