<svg width="24" height="25" viewBox="0 0 24 25" fill="none" xmlns="http://www.w3.org/2000/svg">
<path d="M10.4853 17.7138C10.354 17.714 10.224 17.6884 10.1026 17.6383C9.98131 17.5882 9.87108 17.5146 9.77826 17.4218L5.53626 13.1788C5.44068 13.0866 5.36442 12.9763 5.31193 12.8543C5.25944 12.7324 5.23176 12.6012 5.23051 12.4684C5.22927 12.3356 5.25448 12.2039 5.30467 12.081C5.35486 11.9581 5.42904 11.8464 5.52286 11.7524C5.61669 11.6584 5.72829 11.5841 5.85115 11.5337C5.974 11.4834 6.10566 11.458 6.23844 11.459C6.37122 11.4601 6.50246 11.4876 6.6245 11.5399C6.74654 11.5922 6.85694 11.6683 6.94926 11.7638L10.4843 15.2988L16.8493 8.93578C17.0368 8.74814 17.2911 8.64267 17.5564 8.64258C17.8217 8.64248 18.0761 8.74777 18.2638 8.93528C18.4514 9.12279 18.5569 9.37716 18.557 9.64243C18.5571 9.9077 18.4518 10.1621 18.2643 10.3498L11.1923 17.4218C11.0994 17.5146 10.9892 17.5882 10.8679 17.6383C10.7465 17.6884 10.6165 17.714 10.4853 17.7138V17.7138Z" fill="#0F172A"/>
</svg>
