<svg width="181" height="40" viewBox="0 0 181 40" fill="none" xmlns="http://www.w3.org/2000/svg">
<path d="M1.05996 26.5305C1.09646 26.131 1.13146 25.7545 1.10596 25.47C0.880465 22.9565 1.61296 20.6905 3.22396 18.9185C5.05146 16.908 7.93246 15.7075 10.93 15.7075C15.104 15.7075 18.6025 17.8945 20.289 21.558C20.293 21.5675 20.298 21.577 20.3015 21.5865C20.689 20.16 21.08 19.17 21.393 18.3765C21.922 17.0345 22.206 16.315 21.9785 14.737C21.5656 14.6921 21.1784 14.5145 20.875 14.231C20.8225 14.2345 20.768 14.237 20.713 14.237C20.1455 14.237 19.6535 14.022 19.298 13.639L19.254 13.6395C18.5475 13.6395 17.946 13.334 17.5455 12.795C16.5685 12.713 15.8935 12.124 15.76 11.2165C15.58 9.9985 16.006 6.5895 16.9265 5.5165C17.2915 5.09 17.6945 5 17.9675 5C19.525 5 21.961 5.3595 24.029 5.894C27.798 6.868 28.387 7.8515 28.4805 8.6C28.863 11.6885 29.43 14.4435 29.931 16.8745C30.641 20.3185 31.2015 23.039 30.9305 25.178C30.825 26.0125 30.6145 26.7285 30.4115 27.42C30.1575 28.283 29.896 29.1755 29.8075 30.396C29.686 32.0925 27.854 33.0655 24.781 33.0655C23.5765 33.0655 22.348 32.9085 21.34 32.629C20.104 33.221 16.0255 35 11.6695 35C10.1715 35 8.77596 34.786 7.51996 34.364C1.09346 32.201 0.804963 29.308 1.05996 26.5305ZM29.938 25.0515C30.371 21.635 28.4045 16.1275 27.4875 8.7245C27.332 7.472 21.631 6.161 18.495 6.0195C18.6225 6.122 18.714 6.2565 18.726 6.3995C18.35 6.229 17.7885 6.174 17.513 6.736C17.4985 6.642 17.4925 6.5585 17.4925 6.4805C17.3485 6.7625 17.217 7.147 17.106 7.585C16.9665 8.215 16.8885 8.861 16.887 9.5095C16.886 9.96 16.788 11.566 17.5295 11.357C17.9865 11.228 17.998 10.8065 18.1285 10.3725C18.3295 9.694 18.6835 8.912 18.6405 8.191C18.815 8.8985 18.6075 9.7475 18.5305 10.463C18.4865 10.8795 18.1985 12.005 18.7085 12.1585C18.9905 12.245 19.3175 12.0465 19.551 11.901C19.64 11.845 19.7065 11.4355 19.739 11.3205C19.94 10.6175 20.3 9.809 20.254 9.0705C20.43 9.7365 20.2585 10.539 20.2025 11.2215C20.168 11.6445 19.9545 12.5615 20.4315 12.7745C20.9715 13.057 21.0545 12.372 21.1545 12.013C21.34 11.3465 21.6415 10.6175 21.6335 9.9185C21.822 10.77 21.6005 11.767 21.564 12.639C21.5445 13.072 22.452 13.463 22.7905 13.191C23.321 12.7645 23.4105 11.766 23.4705 11.1205C23.3115 11.3375 23.0835 11.618 22.794 11.5895C23.04 11.309 23.1445 10.828 23.309 10.487C23.46 10.207 23.7665 9.5405 24.127 9.5295C24.0715 9.649 23.7675 10.4725 23.8145 10.5595C23.961 10.832 24.1035 11.109 24.2665 11.37C24.405 11.5895 24.807 12.289 25.1315 12.0775C25.482 11.8505 25.702 10.834 25.702 10.834C25.702 10.834 25.689 12.1015 25.236 12.395C24.807 12.674 24.318 12.234 24.034 11.92C23.9775 12.5225 23.8145 13.229 23.45 13.695C24.521 18.4445 22.5495 18.397 21.2205 24.746C21.2205 24.746 20.3445 23.4545 19.5785 21.791C17.907 18.16 14.4205 16.542 11.0595 16.542C7.72646 16.542 4.15746 18.246 2.86046 21.192C2.43196 22.165 2.32546 23.328 2.44146 24.609C2.63096 26.6955 0.571964 30.09 8.25246 32.6405C14.347 34.664 21.843 30.784 21.843 30.784C23.899 31.456 28.707 31.7495 28.8085 30.3255C28.976 27.993 29.7165 26.8055 29.938 25.0515Z" fill="#FF9800"/>
<path d="M14.8775 30.785C13.539 31.276 12.0845 31.4095 10.6815 31.2425C9.27747 31.0725 7.90347 30.614 6.70647 29.841C6.11247 29.452 5.55997 28.984 5.11547 28.4225C4.68097 27.859 4.32897 27.208 4.24747 26.5175C5.11147 27.5745 6.21047 28.1565 7.34297 28.619C8.48147 29.069 9.67897 29.3495 10.886 29.494C12.094 29.6335 13.3135 29.635 14.5215 29.4475C15.7818 29.2513 16.9967 28.8307 18.1085 28.2055C17.4265 29.4065 16.2065 30.295 14.8775 30.785ZM19.217 7.42501C19.005 6.05051 20.383 6.50301 20.431 7.08901C20.055 6.91801 19.4925 6.86351 19.217 7.42501ZM20.5795 8.18501C20.367 6.81001 21.7445 7.26151 21.7925 7.84951C21.4165 7.67701 20.8545 7.62301 20.5795 8.18501ZM22.153 8.97851C21.9405 7.60401 23.318 8.05601 23.366 8.64301C22.9895 8.47051 22.4285 8.41701 22.153 8.97851Z" fill="#FF9800"/>
<path d="M56.896 15.64C56.4907 14.8933 55.904 14.328 55.136 13.944C54.3893 13.5387 53.504 13.336 52.48 13.336C50.7093 13.336 49.2907 13.9227 48.224 15.096C47.1573 16.248 46.624 17.7947 46.624 19.736C46.624 21.8053 47.1787 23.4267 48.288 24.6C49.4187 25.752 50.9653 26.328 52.928 26.328C54.272 26.328 55.4027 25.9867 56.32 25.304C57.2587 24.6213 57.9413 23.64 58.368 22.36H51.424V18.328H63.328V23.416C62.9227 24.7813 62.2293 26.0507 61.248 27.224C60.288 28.3973 59.0613 29.3467 57.568 30.072C56.0747 30.7973 54.3893 31.16 52.512 31.16C50.2933 31.16 48.3093 30.68 46.56 29.72C44.832 28.7387 43.4773 27.384 42.496 25.656C41.536 23.928 41.056 21.9547 41.056 19.736C41.056 17.5173 41.536 15.544 42.496 13.816C43.4773 12.0667 44.832 10.712 46.56 9.752C48.288 8.77067 50.2613 8.28 52.48 8.28C55.168 8.28 57.4293 8.93067 59.264 10.232C61.12 11.5333 62.3467 13.336 62.944 15.64H56.896ZM83.599 13.144L72.399 39.48H66.511L70.607 30.392L63.343 13.144H69.455L73.583 24.312L77.679 13.144H83.599ZM107.362 12.952C109.58 12.952 111.34 13.624 112.642 14.968C113.964 16.312 114.626 18.1787 114.626 20.568V31H109.186V21.304C109.186 20.152 108.876 19.2667 108.258 18.648C107.66 18.008 106.828 17.688 105.762 17.688C104.695 17.688 103.852 18.008 103.234 18.648C102.636 19.2667 102.338 20.152 102.338 21.304V31H96.8978V21.304C96.8978 20.152 96.5884 19.2667 95.9698 18.648C95.3724 18.008 94.5404 17.688 93.4738 17.688C92.4071 17.688 91.5644 18.008 90.9458 18.648C90.3484 19.2667 90.0498 20.152 90.0498 21.304V31H84.5778V13.144H90.0498V15.384C90.6044 14.6373 91.3298 14.0507 92.2258 13.624C93.1218 13.176 94.1351 12.952 95.2658 12.952C96.6098 12.952 97.8044 13.24 98.8498 13.816C99.9164 14.392 100.748 15.2133 101.346 16.28C101.964 15.2987 102.807 14.4987 103.874 13.88C104.94 13.2613 106.103 12.952 107.362 12.952ZM136.909 8.536V31H131.437V21.752H122.925V31H117.453V8.536H122.925V17.336H131.437V8.536H136.909ZM145.235 8.536V21.976C145.235 23.32 145.566 24.3547 146.227 25.08C146.888 25.8053 147.859 26.168 149.139 26.168C150.419 26.168 151.4 25.8053 152.083 25.08C152.766 24.3547 153.107 23.32 153.107 21.976V8.536H158.579V21.944C158.579 23.9493 158.152 25.6453 157.299 27.032C156.446 28.4187 155.294 29.464 153.843 30.168C152.414 30.872 150.814 31.224 149.043 31.224C147.272 31.224 145.683 30.8827 144.275 30.2C142.888 29.496 141.79 28.4507 140.979 27.064C140.168 25.656 139.763 23.9493 139.763 21.944V8.536H145.235ZM175.022 19.48C176.323 19.7573 177.368 20.408 178.158 21.432C178.947 22.4347 179.342 23.5867 179.342 24.888C179.342 26.7653 178.68 28.2587 177.358 29.368C176.056 30.456 174.232 31 171.886 31H161.422V8.536H171.534C173.816 8.536 175.598 9.05867 176.878 10.104C178.179 11.1493 178.83 12.568 178.83 14.36C178.83 15.6827 178.478 16.7813 177.774 17.656C177.091 18.5307 176.174 19.1387 175.022 19.48ZM166.894 17.624H170.478C171.374 17.624 172.056 17.432 172.526 17.048C173.016 16.6427 173.262 16.056 173.262 15.288C173.262 14.52 173.016 13.9333 172.526 13.528C172.056 13.1227 171.374 12.92 170.478 12.92H166.894V17.624ZM170.926 26.584C171.843 26.584 172.547 26.3813 173.038 25.976C173.55 25.5493 173.806 24.9413 173.806 24.152C173.806 23.3627 173.539 22.744 173.006 22.296C172.494 21.848 171.779 21.624 170.862 21.624H166.894V26.584H170.926Z" fill="#FF9800"/>
</svg>
