<svg width="24" height="24" viewBox="0 0 24 24" fill="none" xmlns="http://www.w3.org/2000/svg">
<path d="M12 12.234H2.75C2.75 16.842 8.5485 20.804 8.5485 20.804H12" stroke="#BDBDBD" stroke-linecap="round" stroke-linejoin="round"/>
<path d="M5.44202 13.287C5.44202 16.683 9.25602 19.189 9.25602 19.189M12 12.234H21.25C21.25 16.842 15.4515 20.804 15.4515 20.804H12M7.04702 12.234C6.37402 9.71452 10.874 7.98252 14.912 7.44752L15.307 6.72052L16.899 8.65552L16.0255 8.79752C15.598 10.2025 13.458 12.234 13.458 12.234" stroke="#BDBDBD" stroke-linecap="round" stroke-linejoin="round"/>
<path d="M7.755 12.234C7.899 10.937 9.403 9.47699 15.141 7.72449" stroke="#BDBDBD" stroke-linecap="round" stroke-linejoin="round"/>
<path d="M15.289 7.905C13.119 8.992 10.589 10.241 8.81604 12.234M15.7125 8.4185C13.4575 11.4815 12 12.234 12 12.234M10.7525 12.234C12.1125 11.439 15.4975 8.157 15.4975 8.157M16.5385 8.2265L20.614 4.9235C20.681 4.86933 20.7366 4.80251 20.7777 4.72684C20.8187 4.65117 20.8445 4.56814 20.8535 4.48251C20.8624 4.39687 20.8544 4.31031 20.8299 4.22777C20.8054 4.14524 20.7648 4.06835 20.7105 4.0015C20.6563 3.93462 20.5895 3.87907 20.5138 3.83803C20.4382 3.79699 20.3551 3.77125 20.2695 3.76229C20.1839 3.75333 20.0974 3.76132 20.0148 3.7858C19.9323 3.81029 19.8554 3.85079 19.7885 3.905L15.7125 7.2075" stroke="#BDBDBD" stroke-linecap="round" stroke-linejoin="round"/>
<path d="M14.9125 7.44751L16.0255 8.79751" stroke="#BDBDBD" stroke-linecap="round" stroke-linejoin="round"/>
</svg>
