<svg width="56" height="56" viewBox="0 0 56 56" fill="none" xmlns="http://www.w3.org/2000/svg">
<circle cx="28" cy="28" r="28" fill="#FF9800"/>
<g clip-path="url(#clip0_174_284)">
<path fill-rule="evenodd" clip-rule="evenodd" d="M33.9999 18C34.5044 17.9998 34.9904 18.1904 35.3604 18.5335C35.7304 18.8766 35.957 19.3468 35.9949 19.85L35.9999 20V36C36 36.5046 35.8095 36.9906 35.4664 37.3605C35.1233 37.7305 34.653 37.9572 34.1499 37.995L33.9999 38H21.9999C21.4953 38.0002 21.0093 37.8096 20.6393 37.4665C20.2693 37.1234 20.0427 36.6532 20.0049 36.15L19.9999 36V35C19.745 34.9997 19.4998 34.9021 19.3145 34.7272C19.1292 34.5522 19.0176 34.313 19.0027 34.0586C18.9878 33.8042 19.0705 33.5536 19.2341 33.3582C19.3977 33.1627 19.6298 33.0371 19.8829 33.007L19.9999 33V31C19.745 30.9997 19.4998 30.9021 19.3145 30.7272C19.1292 30.5522 19.0176 30.313 19.0027 30.0586C18.9878 29.8042 19.0705 29.5536 19.2341 29.3582C19.3977 29.1627 19.6298 29.0371 19.8829 29.007L19.9999 29V27C19.745 26.9997 19.4998 26.9021 19.3145 26.7272C19.1292 26.5522 19.0176 26.313 19.0027 26.0586C18.9878 25.8042 19.0705 25.5536 19.2341 25.3582C19.3977 25.1627 19.6298 25.0371 19.8829 25.007L19.9999 25V23C19.745 22.9997 19.4998 22.9021 19.3145 22.7272C19.1292 22.5522 19.0176 22.313 19.0027 22.0586C18.9878 21.8042 19.0705 21.5536 19.2341 21.3582C19.3977 21.1627 19.6298 21.0371 19.8829 21.007L19.9999 21V20C19.9997 19.4954 20.1903 19.0094 20.5334 18.6395C20.8765 18.2695 21.3467 18.0428 21.8499 18.005L21.9999 18H33.9999ZM33.9999 20H21.9999V36H33.9999V20ZM31.4999 22C31.8728 22 32.2323 22.1389 32.5083 22.3896C32.7843 22.6403 32.9571 22.9848 32.9929 23.356L32.9999 23.5V25.5C32.9999 25.8729 32.8609 26.2324 32.6103 26.5084C32.3596 26.7844 32.015 26.9572 31.6439 26.993L31.4999 27H24.4999C24.127 27 23.7675 26.8611 23.4914 26.6104C23.2154 26.3597 23.0427 26.0152 23.0069 25.644L22.9999 25.5V23.5C22.9999 23.1271 23.1388 22.7676 23.3895 22.4916C23.6402 22.2156 23.9847 22.0428 24.3559 22.007L24.4999 22H31.4999ZM30.9999 24H24.9999V25H30.9999V24Z" fill="white"/>
</g>
<defs>
<clipPath id="clip0_174_284">
<rect width="24" height="24" fill="white" transform="translate(16 16)"/>
</clipPath>
</defs>
</svg>
